<?xml version="1.0" encoding="UTF-8" standalone="no"?>
<!-- Created with Inkscape (http://www.inkscape.org/) -->

<svg
   width="2500"
   height="1900"
   id="svg18614"
   version="1.1"
   inkscape:version="1.3 (0e150ed6c4, 2023-07-21)"
   sodipodi:docname="Autódromo_Oscar_y_Juan_Gálvez_Circuito_N°_15 (Limpia).svg"
   xmlns:inkscape="http://www.inkscape.org/namespaces/inkscape"
   xmlns:sodipodi="http://sodipodi.sourceforge.net/DTD/sodipodi-0.dtd"
   xmlns="http://www.w3.org/2000/svg"
   xmlns:svg="http://www.w3.org/2000/svg"
   xmlns:rdf="http://www.w3.org/1999/02/22-rdf-syntax-ns#"
   xmlns:cc="http://creativecommons.org/ns#"
   xmlns:dc="http://purl.org/dc/elements/1.1/">
  <defs
     id="defs18616" />
  <sodipodi:namedview
     id="base"
     pagecolor="#ffffff"
     bordercolor="#666666"
     borderopacity="1.0"
     inkscape:pageopacity="0.0"
     inkscape:pageshadow="2"
     inkscape:zoom="0.5"
     inkscape:cx="1258"
     inkscape:cy="1177"
     inkscape:document-units="px"
     inkscape:current-layer="layer1"
     showgrid="false"
     inkscape:window-width="1920"
     inkscape:window-height="991"
     inkscape:window-x="-9"
     inkscape:window-y="-9"
     inkscape:window-maximized="1"
     inkscape:showpageshadow="0"
     inkscape:pagecheckerboard="1"
     inkscape:deskcolor="#505050" />
  <metadata
     id="metadata18619">
    <rdf:RDF>
      <cc:Work
         rdf:about="">
        <dc:format>image/svg+xml</dc:format>
        <dc:type
           rdf:resource="http://purl.org/dc/dcmitype/StillImage" />
      </cc:Work>
    </rdf:RDF>
  </metadata>
  <g
     inkscape:label="Circuito"
     inkscape:groupmode="layer"
     id="layer1"
     transform="translate(0,847.63782)"
     sodipodi:insensitive="true"
     style="display:inline">
    <g
       id="g9524"
       style="display:inline">
      <path
         id="path3806-3-3"
         style="color:#000000;font-style:normal;font-variant:normal;font-weight:normal;font-stretch:normal;font-size:medium;line-height:normal;font-family:Sans;-inkscape-font-specification:Sans;text-indent:0;text-align:start;text-decoration:none;text-decoration-line:none;letter-spacing:normal;word-spacing:normal;text-transform:none;writing-mode:lr-tb;direction:ltr;baseline-shift:baseline;text-anchor:start;display:inline;overflow:visible;visibility:visible;fill:#000000;fill-opacity:1;stroke:none;stroke-width:13.4;marker:none;enable-background:accumulate"
         d="M 2077.5098 -787.00891 C 1970.6037 -783.76222 1892.2247 -721.18631 1836.5742 -616.42688 C 1836.5742 -616.41888 1836.5558 -616.41585 1836.5508 -616.40735 L 1403.3516 65.715696 C 1403.3236 65.757596 1403.3102 65.779234 1403.2812 65.821164 C 1393.8016 79.83456 1374.8291 99.968529 1367.2734 105.13757 C 1367.2842 105.16396 1367.3056 105.18156 1367.3164 105.20788 C 1367.2973 105.19143 1367.2789 105.17354 1367.2598 105.1571 C 1350.4398 118.68893 1296.1595 147.51494 1224.2637 131.0321 C 1224.2626 131.03471 1224.2627 131.03536 1224.2617 131.03796 C 1168.9628 116.29326 1104.2964 130.28584 1070.2031 153.10437 C 1045.9566 169.33241 1015.387 197.44829 999.43945 214.84655 L 999.43945 214.84851 C 833.04299 392.37867 647.0179 625.71903 552.74414 733.04382 C 552.7456 733.04678 552.74854 733.04867 552.75 733.05163 C 532.51401 756.8799 493.17576 785.50718 446.29102 802.42468 C 446.2923 802.42922 446.29364 802.43382 446.29492 802.43835 C 416.19366 814.22381 386.68944 826.16073 358.71094 838.48132 C 358.71172 838.4832 358.71211 838.4853 358.71289 838.48718 C 339.79066 844.63518 326.1131 853.22757 318.71094 863.85241 C 311.30643 874.4807 310.99872 888.59218 314.26562 899.23327 C 320.79769 920.51012 333.40256 929.12995 376.04102 928.68249 C 376.04292 928.70738 376.04499 928.72784 376.04688 928.7528 L 500.67773 927.63952 C 500.67958 927.63264 500.6798 927.62493 500.68164 927.61804 C 529.21425 927.04512 575.9459 921.98661 600.99805 861.74109 C 616.23723 834.61551 613.0126 825.70212 655.35156 801.43054 C 688.32463 782.52806 738.14227 769.32763 770.24414 757.55945 C 770.25156 757.55545 770.25632 757.54791 770.26367 757.54382 L 819.80273 739.58288 L 819.80469 739.58484 C 903.7443 708.64237 979.18799 677.67956 1065.8164 645.71179 L 1073.3262 643.40515 C 1087.0389 638.64065 1102.5734 639.93314 1115.5293 649.98523 C 1127.9834 659.64822 1136.5159 676.98285 1133.0156 697.26843 C 1127.2751 722.01761 1122.5833 742.15626 1117.6602 763.33874 L 1116.6445 767.16491 C 1111.5173 785.9797 1104.4341 795.87739 1095.4277 803.33288 C 1086.4388 810.77388 1073.0146 813.32441 1061.998 813.22741 L 1025.6191 811.23718 C 1011.9007 809.95758 1001.4564 810.5384 991.45703 815.1532 C 983.67334 818.76219 978.365 824.32108 973.72461 828.73327 C 969.08421 833.14557 963.2125 837.35185 956.3457 840.02624 C 950.49741 842.30394 945.13466 843.03923 935.73047 842.70593 C 917.22229 842.63593 892.5085 840.31219 872.44922 839.6532 C 847.89344 840.33729 829.05068 856.66836 826.02148 877.05554 C 825.07349 887.31973 826.51131 899.38601 835.3125 909.5907 C 843.17699 918.70929 849.84268 925.78848 882.90234 925.98718 C 882.90457 925.97954 882.90599 925.96945 882.9082 925.96179 C 949.3082 925.21009 1036.6103 926.74997 1084.4863 923.5614 C 1084.4953 923.52157 1084.4991 923.48021 1084.5078 923.4403 C 1084.5177 923.47135 1084.5232 923.49904 1084.5332 923.53015 C 1106.9929 921.19915 1131.4273 916.05274 1162.4473 894.91296 C 1188.4261 877.20868 1219.814 847.14721 1251.8047 795.07116 C 1261.7643 778.85838 1265.8412 769.26473 1275.2559 757.93445 C 1289.444 741.42696 1303.9945 733.75851 1317.6699 732.00671 C 1331.0156 730.29711 1338.665 731.22423 1349.1055 733.36023 C 1352.8742 734.13993 1358.2062 735.08597 1363.1875 735.95007 C 1368.7678 736.83727 1374.9164 737.41819 1378.8418 737.86999 C 1406.5137 741.05449 1428.3311 734.13798 1443.9688 723.24499 C 1447.772 720.5957 1450.5046 718.53654 1454.4727 714.87195 C 1462.1523 707.18525 1469.7222 698.52528 1476.0781 691.42859 L 1522.6836 639.86609 C 1522.6936 639.85609 1522.6971 639.8516 1522.7051 639.8446 L 1579.8867 576.21765 L 1579.9336 576.17663 L 1666.1777 483.23718 C 1666.2167 483.20318 1666.2552 483.16761 1666.293 483.13171 L 1762.7227 373.55163 L 1762.7461 373.5321 L 1855.6836 270.10437 L 1855.7031 270.1278 L 1984.6582 133.70788 C 1984.7392 133.62558 1984.8175 133.54116 1984.8926 133.45398 C 2050.9496 53.70419 2121.4199 -24.222251 2192.5234 -105.23938 L 2192.543 -105.21595 L 2317.4316 -243.52063 C 2317.4466 -243.53453 2317.4635 -243.54755 2317.4785 -243.56165 L 2402.5 -339.48157 C 2402.566 -339.56497 2402.629 -339.6501 2402.6895 -339.73743 C 2417.2276 -358.26639 2445.6006 -412.42621 2447.4727 -461.23743 C 2447.4727 -461.28163 2447.4724 -461.32424 2447.4824 -461.36829 C 2447.4829 -461.38289 2447.4824 -461.39871 2447.4824 -461.41321 C 2452.1093 -527.69918 2428.1206 -594.17963 2402.6777 -627.84095 C 2402.6657 -627.85634 2402.6487 -627.87057 2402.6367 -627.88587 C 2369.1636 -673.17829 2330.9704 -700.37778 2292.4082 -723.72766 C 2292.2622 -723.81606 2292.1245 -723.92645 2291.9785 -724.01477 C 2256.7017 -750.41403 2187.783 -782.15628 2099.3164 -786.86048 C 2099.3014 -786.86118 2099.2884 -786.86148 2099.2734 -786.86048 C 2091.8911 -787.17646 2084.6368 -787.22536 2077.5098 -787.00891 z M 2077.7129 -776.72962 C 2084.5999 -776.93058 2091.6147 -776.88024 2098.7617 -776.57532 C 2098.7767 -776.57452 2098.7916 -776.57432 2098.8066 -776.57532 C 2185.3799 -771.96212 2253.0735 -740.42172 2286.2012 -715.49524 C 2286.3454 -715.3841 2286.4953 -715.27996 2286.6504 -715.1847 C 2324.9287 -692.03722 2361.8304 -665.79354 2394.3867 -621.72376 C 2394.4007 -621.70826 2394.4157 -621.69218 2394.4297 -621.67688 C 2417.7859 -590.80534 2441.671 -525.33165 2437.1992 -461.96595 C 2437.1992 -461.90705 2437.1895 -461.84905 2437.1895 -461.79016 C 2435.5219 -416.79905 2406.9591 -361.86725 2394.5977 -346.11243 L 2309.7871 -250.42493 L 2309.7637 -250.40345 L 2184.8984 -112.1222 C 2184.8824 -112.1083 2184.8685 -112.09333 2184.8535 -112.07923 C 2113.881 -31.210414 2043.3992 46.72913 1977.1992 126.63562 L 1976.9648 126.88952 L 1848.2012 263.05359 C 1848.1692 263.08159 1848.1384 263.10857 1848.1074 263.13757 L 1755.0742 366.6903 C 1755.0582 366.7043 1755.0453 366.71827 1755.0293 366.73327 L 1658.5332 476.33093 L 1572.334 569.22937 C 1572.311 569.25037 1572.2867 569.27087 1572.2637 569.29187 L 1515.0371 632.95984 L 1468.6504 684.52038 C 1468.6437 684.51713 1468.6395 684.51386 1468.6328 684.51062 C 1451.1268 702.9916 1444.3964 710.57678 1438.0039 714.60827 C 1420.2861 725.78206 1411.6827 729.01762 1383.5723 727.63952 C 1381.3654 727.40332 1375.17 727.27324 1369.9512 726.65124 C 1366.823 726.30014 1357.3902 724.73455 1350.1543 723.21765 C 1336.3484 720.91215 1330.8615 718.88264 1315.7949 721.64734 C 1299.9687 724.55133 1282.6942 733.02641 1267.0176 751.39929 C 1266.8347 751.60609 1259.535 760.96506 1256.9883 765.81335 C 1210.9881 840.89578 1185.2127 865.92005 1156.3887 886.36023 C 1127.5645 906.80041 1105.0375 908.12206 1082.6816 910.44226 C 1082.6814 910.46407 1082.6838 910.48684 1082.6836 910.50866 C 1037.6272 914.63248 949.11216 911.39453 883.36133 913.18249 C 883.3602 913.17443 883.36051 913.16516 883.35938 913.1571 C 864.83129 913.5771 854.88952 910.86405 848.16992 904.19226 C 841.45043 897.52036 839.15047 889.58671 839.88477 881.63562 C 841.35336 865.73343 856.09334 851.50907 874.10742 852.32116 L 926.39453 853.42273 L 926.41797 853.40124 L 926.46289 853.40124 C 942.54077 853.84324 952.95947 852.17937 961.16406 848.57898 C 969.36855 844.97858 975.13925 839.50644 979.78125 835.09265 C 984.42325 830.67885 988.42363 826.90262 994.76562 824.26452 C 1001.1076 821.62653 1010.0456 820.04632 1024.5488 821.07312 L 1024.5918 821.07312 L 1024.6367 821.07312 L 1064.623 823.14343 L 1064.7109 823.1532 L 1064.7988 823.1532 C 1084.3734 823.3698 1094.6057 817.06872 1105.5312 807.17663 L 1105.5312 807.18054 C 1114.4547 798.26995 1120.9374 788.2507 1125.7227 770.60241 C 1126.2027 768.27572 1126.2135 768.27799 1127.002 765.7782 L 1143.2246 700.33484 C 1148.3912 666.48807 1131.9812 647.03904 1118.209 636.80945 C 1102.3392 626.02656 1083.7979 628.50838 1066.877 634.38757 L 1066.8301 634.43054 L 1066.7637 634.45007 C 969.38147 670.50183 900.18729 699.035 816.23438 729.20007 C 816.23484 729.20332 816.23587 729.20658 816.23633 729.20984 L 766.27344 746.76843 C 766.27384 746.76981 766.27499 746.77096 766.27539 746.77234 C 766.2695 746.77426 766.26371 746.77232 766.25781 746.77429 C 742.86874 754.59938 716.37432 763.4919 702.76953 767.24499 C 686.59725 771.70629 657.60468 785.30802 650.58789 789.35632 C 606.82873 814.6023 600.40217 832.78706 590.73828 856.74304 C 581.92529 878.58982 559.14148 915.12313 501.75781 914.86023 C 501.75689 914.86255 501.75679 914.86572 501.75586 914.86804 L 375.9668 916.01648 C 375.9637 916.00224 375.9621 915.98973 375.95898 915.97546 C 341.87682 917.06866 333.75546 908.69221 329.50781 894.85632 C 327.38394 887.93853 327.57647 879.98623 332.99805 872.55554 C 341.81522 860.47082 354.37931 857.36377 366.14062 852.17663 C 366.14474 852.18365 366.14823 852.1911 366.15234 852.19812 C 393.98467 838.92226 422.37479 826.14446 451.84961 814.68249 C 451.85041 814.68373 451.85077 814.68516 451.85156 814.6864 C 498.5897 794.47804 529.23099 780.92198 563.39062 744.27038 L 563.39258 744.27234 C 576.95286 728.58515 586.43491 722.00753 591.28711 716.61413 C 601.509 705.25254 595.32018 713.95123 610.47656 696.03015 C 639.72993 661.44078 689.71729 605.07935 740.86523 543.03991 C 786.35979 490.95087 797.74997 473.68602 896.10938 358.95593 C 939.77143 303.3893 965.10963 268.61416 1007.6465 223.1278 C 1007.6388 223.11785 1007.6307 223.10847 1007.623 223.09851 C 1023.528 208.02168 1047.6848 181.99094 1086.2539 160.43054 C 1122.3628 140.24546 1174.972 134.14836 1220.3633 145.65124 L 1220.3633 145.64929 C 1220.3635 145.6487 1220.3631 145.64792 1220.3633 145.64734 C 1229.9383 148.27172 1250.3121 153.9073 1277.2949 151.73132 C 1299.2149 151.02548 1311.2567 147.09455 1321.7949 144.24109 C 1327.446 142.71089 1357.5011 135.50713 1376.4004 116.48132 C 1376.3973 116.4739 1376.3937 116.46725 1376.3906 116.45984 C 1384.0085 108.66216 1392.0595 101.16033 1411.918 71.450071 C 1411.942 71.414471 1411.9662 71.378879 1411.9902 71.342649 L 1845.2598 -610.93079 C 1845.3288 -611.04308 1845.3948 -611.15735 1845.4551 -611.27454 C 1900.043 -714.22181 1974.4072 -773.71514 2077.7129 -776.72962 z " />
    </g>
  </g>
  <g
     inkscape:groupmode="layer"
     id="layer14"
     inkscape:label="Círculos" />
</svg>
