<?xml version="1.0" encoding="UTF-8" standalone="no"?>
<svg
   clip-rule="evenodd"
   stroke-miterlimit="10"
   viewBox="0 0 538.58 425.20"
   version="1.1"
   id="svg38"
   sodipodi:docname="Autódromo_Hermanos_Rodríguez_2015.svg"
   inkscape:version="1.3 (0e150ed6c4, 2023-07-21)"
   xmlns:inkscape="http://www.inkscape.org/namespaces/inkscape"
   xmlns:sodipodi="http://sodipodi.sourceforge.net/DTD/sodipodi-0.dtd"
   xmlns="http://www.w3.org/2000/svg"
   xmlns:svg="http://www.w3.org/2000/svg">
  <sodipodi:namedview
     id="namedview38"
     pagecolor="#505050"
     bordercolor="#ffffff"
     borderopacity="1"
     inkscape:showpageshadow="0"
     inkscape:pageopacity="0"
     inkscape:pagecheckerboard="1"
     inkscape:deskcolor="#505050"
     inkscape:zoom="1.8273753"
     inkscape:cx="269.51223"
     inkscape:cy="212.60001"
     inkscape:window-width="1920"
     inkscape:window-height="991"
     inkscape:window-x="-9"
     inkscape:window-y="-9"
     inkscape:window-maximized="1"
     inkscape:current-layer="svg38" />
  <desc
     id="desc1">SVG generated by Lineform</desc>
  <defs
     id="defs1" />
  <g
     id="g38">
    <path
       d="m 183.64,61.9 c 106.12,16.36 162.75,22 198.11,27.74 23.58,3.83 65.3,10.6 76.07,13.35 9.82,2.51 10.02,2.25 9.07,9.58 -0.81,6.15 -1.3,9.03 -2.36,15.22 -0.48,2.84 1.77,4.06 5.6,7.73 2.3,2.21 4.42,3.73 4.03,5.73 -3.89,19.98 -5.95,23.02 -10.91,33.69 -2.33,5.03 -4.52,7.57 -7.21,12.41 -16.34,26.25 -32.69,52.5 -49.04,78.75 -8.66,13.91 -18.66,27.02 -28.11,40.32 -0.95,1.33 -2.2,3.1 -2.03,4.73 0.29,2.68 9.5,7.01 12.21,8.76 2.73,1.77 3.5,2.9 3.13,5.75 -0.26,2.06 -2.63,3.37 -4.23,4.49 -7.82,5.47 -15.33,10.62 -23.14,16.08 -1.06,0.74 -2.4,1.21 -3.6,0.73 -1.31,-0.52 -3.07,-1.82 -4.6,-2.72 -1.56,-0.93 -1.32,-2.68 -1.06,-4.48 3.94,-26.98 7.93,-54.84 11.86,-81.81 0.48,-3.25 -0.94,-6.73 -3.73,-8.47 -5.24,-3.24 -8.83,-5.79 -13.94,-8.91 -5.19,-3.17 -9.11,-10.75 -10.95,-16.55 -2.26,-7.15 -8.11,-14.05 -15.26,-15.43 -10.83,-2.1 -21.66,-3.73 -32.48,-5.65 -6.35,-1.13 -12.65,-3.89 -15.47,-11.62 -1.66,-4.52 -2.9,-8.63 -4.47,-13.19 -1.15,-3.32 -4.96,-5.38 -8.05,-7.06 -10.17,-5.55 -20.76,-11.17 -30.94,-16.72 -7.16,-3.9 -15.51,-6.06 -23.57,-7.36 -27.84,-4.52 -55.46,-9 -83.3,-13.51 -4.86,-0.79 -9.8,-2.53 -10.61,-10.01 -1.29,-11.99 -2.15,-23.93 -3.3,-35.89 -0.21,-2.25 -0.31,-5.08 -3.05,-6.16 -1.77,-0.7 -3.87,-0.39 -5.01,1.13 -1.73,2.28 -3.57,4.31 -5.29,6.6 -1.54,2.04 -5.52,1.99 -7.85,0.93 -2.62,-1.2 -5,-3.46 -7.85,-3.85 -5.82,-0.78 -11.26,-1.05 -17.08,-1.84 -2.55,-0.34 -5.13,-3.46 -4.86,-6.02 0.27,-2.61 0.53,-3.35 1.21,-5.18 2.79,-7.48 8.33,-15.8 15.28,-19.89 6.38,-3.77 13.83,-6.06 22.36,-4.49 z m 93.2,13.34"
       stroke="#000000"
       stroke-width="8"
       fill="none"
       id="Graphic 5"
       style="display:inline"
       sodipodi:insensitive="true" />
  </g>
</svg>
