<?xml version="1.0" encoding="UTF-8" standalone="no"?>
<svg
   inkscape:export-ydpi="90.015755"
   inkscape:export-xdpi="90.015755"
   inkscape:export-filename="D:\Images\Race Tracks\Catalunya.png"
   inkscape:output_extension="org.inkscape.output.svg.inkscape"
   sodipodi:docname="Circuit_de_Catalunya_moto_2021.svg"
   version="1.0"
   inkscape:version="1.3 (0e150ed6c4, 2023-07-21)"
   sodipodi:version="0.32"
   id="svg3942"
   height="517.72412"
   width="1408.546"
   xmlns:inkscape="http://www.inkscape.org/namespaces/inkscape"
   xmlns:sodipodi="http://sodipodi.sourceforge.net/DTD/sodipodi-0.dtd"
   xmlns="http://www.w3.org/2000/svg"
   xmlns:svg="http://www.w3.org/2000/svg"
   xmlns:rdf="http://www.w3.org/1999/02/22-rdf-syntax-ns#"
   xmlns:cc="http://creativecommons.org/ns#"
   xmlns:dc="http://purl.org/dc/elements/1.1/">
  <defs
     id="defs3944">
    <clipPath
       id="clipPath9724"
       clipPathUnits="userSpaceOnUse">
      <path
         style="fill:#6a6a6a;fill-opacity:1;fill-rule:nonzero;stroke:#010101;stroke-width:0.94262564;stroke-linecap:round;stroke-linejoin:round;stroke-miterlimit:4;stroke-dasharray:none;stroke-dashoffset:0;stroke-opacity:1"
         d="M 727.23942,720.30758 C 1333.36,720.30758 1939.4804,720.30758 2545.601,720.30758 C 2545.601,974.89282 2545.601,1229.4779 2545.601,1484.0631 C 1939.4804,1484.0631 1333.36,1484.0631 727.23942,1484.0631 C 727.23942,1229.4779 727.23942,974.89282 727.23942,720.30758 L 727.23942,720.30758 z"
         id="path9726" />
    </clipPath>
    <pattern
       id="pattern4912"
       patternTransform="matrix(0.1737876,0,0,0.1737876,763.47719,1693.9071)"
       height="18.137641"
       width="18.181098"
       patternUnits="userSpaceOnUse">
      <g
         transform="translate(-1025.5348,-1215.2814)"
         id="g4907">
        <rect
           y="1215.2814"
           x="1025.5348"
           height="18.095789"
           width="18.172573"
           id="rect4899"
           style="opacity:1;fill:#000000;fill-opacity:1;stroke:none;stroke-width:0.5;stroke-linecap:round;stroke-linejoin:round;stroke-miterlimit:4;stroke-dasharray:none;stroke-dashoffset:0;stroke-opacity:1" />
        <rect
           y="1215.2814"
           x="1025.5348"
           height="9.0746527"
           width="9.0746527"
           id="rect4903"
           style="opacity:1;fill:#ffffff;fill-opacity:1;stroke:none;stroke-width:0.5;stroke-linecap:round;stroke-linejoin:round;stroke-miterlimit:4;stroke-dasharray:none;stroke-dashoffset:0;stroke-opacity:1" />
        <rect
           y="1224.3444"
           x="1034.6412"
           height="9.0746527"
           width="9.0746527"
           id="rect4905"
           style="opacity:1;fill:#ffffff;fill-opacity:1;stroke:none;stroke-width:0.5;stroke-linecap:round;stroke-linejoin:round;stroke-miterlimit:4;stroke-dasharray:none;stroke-dashoffset:0;stroke-opacity:1" />
      </g>
    </pattern>
  </defs>
  <sodipodi:namedview
     inkscape:document-rotation="0"
     inkscape:window-maximized="1"
     inkscape:window-y="-9"
     inkscape:window-x="-9"
     inkscape:window-height="991"
     inkscape:window-width="1920"
     showgrid="false"
     inkscape:current-layer="layer1"
     inkscape:document-units="px"
     inkscape:cy="62.693014"
     inkscape:cx="552.96647"
     inkscape:zoom="0.70980796"
     inkscape:pageshadow="0"
     inkscape:pageopacity="0.0"
     borderopacity="0.0"
     bordercolor="#ffffff"
     pagecolor="#ffffff"
     id="base"
     inkscape:showpageshadow="0"
     inkscape:pagecheckerboard="1"
     inkscape:deskcolor="#505050" />
  <metadata
     id="metadata3947">
    <rdf:RDF>
      <cc:Work
         rdf:about="">
        <dc:format>image/svg+xml</dc:format>
        <dc:type
           rdf:resource="http://purl.org/dc/dcmitype/StillImage" />
        <cc:license
           rdf:resource="http://creativecommons.org/licenses/by-sa/4.0/" />
        <dc:date>8-5-2008</dc:date>
        <dc:creator>
          <cc:Agent>
            <dc:title>Will Pittenger</dc:title>
          </cc:Agent>
        </dc:creator>
        <dc:publisher>
          <cc:Agent>
            <dc:title>Will Pittenger</dc:title>
          </cc:Agent>
        </dc:publisher>
        <dc:subject>
          <rdf:Bag />
        </dc:subject>
        <dc:description />
      </cc:Work>
      <cc:License
         rdf:about="http://creativecommons.org/licenses/by-sa/4.0/">
        <cc:permits
           rdf:resource="http://creativecommons.org/ns#Reproduction" />
        <cc:permits
           rdf:resource="http://creativecommons.org/ns#Distribution" />
        <cc:requires
           rdf:resource="http://creativecommons.org/ns#Notice" />
        <cc:requires
           rdf:resource="http://creativecommons.org/ns#Attribution" />
        <cc:permits
           rdf:resource="http://creativecommons.org/ns#DerivativeWorks" />
        <cc:requires
           rdf:resource="http://creativecommons.org/ns#ShareAlike" />
      </cc:License>
    </rdf:RDF>
  </metadata>
  <g
     transform="translate(-930.50284,-997.61967)"
     id="layer1"
     inkscape:groupmode="layer"
     inkscape:label="Layer 1">
    <path
       transform="translate(930.50284,997.61967)"
       d="M 336.48438,37.208984 C 281.76376,37.106072 227.46183,37.644719 172.13477,39.261719 150.21557,39.899319 119.68678,49.3606 100.26758,59.25 76.617678,71.2939 56.634016,84.720969 38.697266,103.79297 c -13.56749,14.4262 -23.407271,34.82414 -28.712891,53.83594 -4.26529,15.284 -5.0981225,33.10783 -2.5390625,49.05273 2.6251895,16.3569 8.8851135,28.35077 17.2460935,42.35547 7.59054,12.7141 19.008661,26.07851 32.300782,32.72461 28.18185,14.0909 60.523432,23.32018 89.582032,36.67578 37.2176,17.1055 46.83316,37.67363 46.38086,77.26953 -0.2743,24.0146 5.34902,49.52622 51.51562,50.66992 231.1479,5.7262 460.05682,0.26394 691.35352,0.77344 130.80268,0.2881 239.60708,0.86724 367.87498,0.77344 34.3163,-0.026 59.9073,-21.68378 72.2422,-36.10938 11.1936,-13.0908 19.4803,-34.96005 20.3379,-52.78515 1.2581,-26.1511 2.2487,-51.21086 3.1641,-75.53516 l -0.01,-0.0156 c 0.942,-25.05078 1.8399,-50.03608 2.9687,-76.79688 0.7083,-16.7887 -1.1655,-36.01175 -8.1699,-50.24805 -6.2495,-12.702 -20.0727,-31.08722 -37.6679,-38.07812 -8.8958,-3.53449 -17.4607,-6.83299 -25.8262,-9.97461 v -0.01 c -39.6019,-15.526596 -74.7249,-26.212259 -117.3574,-41.664059 -10.2079,-3.6998 -22.1342,-6.784509 -32.3028,-4.787109 -12.1635,2.3893 -26.5016,10.352672 -34.2715,19.638672 -8.5804,10.2546 -15.0022,24.675446 -17.3164,38.560546 -1.6737,10.0422 2.4193,23.3179 7.045,31.5293 10.6807,18.9601 29.1488,26.55671 48.1328,32.30078 20.671,6.2545 31.431,11.02295 46.8454,24.12355 13.1406,11.16815 33.1504,37.07644 37.4004,59.52445 7.3186,35.56373 -3.1704,57.62064 -23.3669,61.90234 -8.8106,1.86786 -17.8553,2.77283 -30.7774,-4.11284 -137.8729,-80.08 -262.79468,-157.21454 -400.97458,-241.931642 -18.2817,-11.2084 -38.73496,-21.126534 -59.81836,-23.927734 -13.0682,-1.7363 -29.46494,-1.170544 -41.24414,1.910156 -14.142,3.6987 -31.14164,12.986937 -40.74804,24.773438 -46.6227,57.203802 -70.64247,100.273532 -112.28907,161.894532 -9.3222,13.7932 -14.74955,31.46397 -12.68945,47.10547 5.2216,39.6454 -11.30697,67.85942 -37.88477,69.39062 -43.8466,2.5262 -72.72399,-1.11768 -113.27929,-2.33398 -26.9443,-0.8081 -52.89387,-11.40678 -76.91797,-24.20508 -46.7414,-24.9004 -88.45117,-49.33842 -131.95117,-78.04102 -11.4789,-7.5741 -21.50618,-19.75977 -24.20508,-31.45507 -2.0865,-9.0417 2.98571,-24.52967 9.84961,-31.60157 6.2961,-6.4869 16.46824,-9.73874 26.24804,-9.49804 69.9924,1.7221 131.06545,0.86178 202.87305,-2.32032 14.9265,-0.6615 35.98299,-11.87852 47.02149,-21.60742 12.49,-11.0081 22.57112,-21.58347 29.48632,-36.79687 5.0484,-11.1066 8.8824,-25.25279 7.25,-37.087893 -1.5579,-11.2946 -9.46683,-27.211444 -16.39843,-34.839844 -8.2179,-9.044 -20.43522,-16.654412 -33.35352,-16.820312 -33.44512,-0.42945 -66.4274,-0.723409 -99.25976,-0.785157 z"
       style="display:inline;fill:none;fill-rule:evenodd;stroke:#000000;stroke-width:10;stroke-linecap:butt;stroke-linejoin:round;stroke-miterlimit:4;stroke-dasharray:none;stroke-opacity:1"
       id="path3965"
       sodipodi:nodetypes="scssssccsssscssccsssccssssssscscssscsssssssscssssssss"
       sodipodi:insensitive="true" />
  </g>
</svg>
