<svg xmlns="http://www.w3.org/2000/svg"><path d="M 55.715,18.780 L 56.375,18.881 L 57.035,18.982 L 57.696,19.082 L 58.356,19.183 L 59.016,19.284 L 59.676,19.385 L 60.336,19.485 L 60.996,19.585 L 61.657,19.684 L 62.317,19.783 L 62.978,19.882 L 63.638,19.981 L 64.298,20.079 L 64.959,20.178 L 65.619,20.276 L 66.280,20.373 L 66.941,20.470 L 67.602,20.567 L 68.262,20.664 L 68.923,20.761 L 69.584,20.858 L 70.245,20.954 L 70.906,21.049 L 71.566,21.144 L 72.227,21.239 L 72.888,21.334 L 73.549,21.429 L 74.210,21.524 L 74.872,21.617 L 75.533,21.711 L 76.194,21.804 L 76.855,21.897 L 77.517,21.991 L 78.178,22.084 L 78.839,22.176 L 79.501,22.267 L 80.162,22.359 L 80.824,22.450 L 81.485,22.542 L 82.147,22.633 L 82.808,22.724 L 83.470,22.814 L 84.132,22.904 L 84.793,22.994 L 85.455,23.084 L 86.117,23.173 L 86.779,23.262 L 87.440,23.351 L 88.102,23.440 L 88.764,23.528 L 89.426,23.616 L 90.088,23.704 L 90.750,23.792 L 91.412,23.879 L 92.074,23.967 L 92.736,24.054 L 93.398,24.141 L 94.060,24.228 L 94.723,24.314 L 95.385,24.401 L 96.047,24.487 L 96.709,24.574 L 97.371,24.660 L 98.033,24.746 L 98.696,24.832 L 99.358,24.918 L 100.020,25.004 L 100.682,25.090 L 101.344,25.177 L 102.007,25.263 L 102.669,25.349 L 103.331,25.436 L 103.993,25.523 L 104.655,25.610 L 105.317,25.697 L 105.979,25.785 L 106.641,25.873 L 107.303,25.962 L 107.965,26.051 L 108.626,26.141 L 109.288,26.232 L 109.950,26.323 L 110.611,26.416 L 111.272,26.510 L 111.933,26.604 L 112.594,26.701 L 113.254,26.799 L 113.915,26.898 L 114.575,27.000 L 115.234,27.104 L 115.894,27.208 L 116.553,27.315 L 117.212,27.422 L 117.871,27.530 L 118.530,27.637 L 119.189,27.744 L 119.849,27.852 L 120.508,27.960 L 121.167,28.068 L 121.825,28.176 L 122.484,28.284 L 123.143,28.393 L 123.802,28.502 L 124.461,28.611 L 125.120,28.721 L 125.778,28.831 L 126.437,28.941 L 127.095,29.052 L 127.754,29.163 L 128.412,29.275 L 129.070,29.388 L 129.729,29.501 L 130.387,29.614 L 131.044,29.729 L 131.702,29.844 L 132.360,29.960 L 133.017,30.078 L 133.674,30.196 L 134.331,30.316 L 134.988,30.438 L 135.644,30.562 L 136.300,30.689 L 136.955,30.819 L 137.609,30.953 L 138.261,31.095 L 138.911,31.249 L 139.558,31.414 L 140.204,31.585 L 140.841,31.784 L 141.431,32.089 L 141.742,32.662 L 141.745,33.328 L 141.672,33.992 L 141.584,34.654 L 141.493,35.315 L 141.396,35.976 L 141.293,36.636 L 141.186,37.295 L 141.075,37.953 L 140.962,38.612 L 140.954,39.273 L 141.290,39.843 L 141.763,40.314 L 142.257,40.763 L 142.744,41.220 L 143.232,41.676 L 143.677,42.172 L 143.864,42.797 L 143.738,43.452 L 143.605,44.107 L 143.467,44.760 L 143.324,45.412 L 143.173,46.063 L 143.013,46.711 L 142.842,47.357 L 142.657,47.998 L 142.456,48.635 L 142.236,49.266 L 141.996,49.889 L 141.738,50.505 L 141.465,51.114 L 141.184,51.720 L 140.899,52.324 L 140.616,52.928 L 140.327,53.530 L 140.011,54.119 L 139.672,54.694 L 139.317,55.260 L 138.961,55.824 L 138.614,56.395 L 138.278,56.972 L 137.925,57.539 L 137.572,58.106 L 137.219,58.673 L 136.866,59.240 L 136.513,59.807 L 136.160,60.373 L 135.807,60.940 L 135.454,61.507 L 135.101,62.074 L 134.748,62.641 L 134.395,63.208 L 134.042,63.775 L 133.690,64.342 L 133.337,64.908 L 132.984,65.475 L 132.631,66.042 L 132.278,66.609 L 131.925,67.176 L 131.572,67.743 L 131.219,68.310 L 130.866,68.876 L 130.513,69.443 L 130.160,70.010 L 129.807,70.577 L 129.454,71.144 L 129.100,71.711 L 128.747,72.277 L 128.394,72.844 L 128.041,73.411 L 127.688,73.978 L 127.335,74.545 L 126.982,75.112 L 126.629,75.678 L 126.276,76.245 L 125.923,76.812 L 125.570,77.379 L 125.217,77.946 L 124.864,78.513 L 124.511,79.079 L 124.158,79.646 L 123.805,80.213 L 123.452,80.780 L 123.096,81.345 L 122.735,81.907 L 122.371,82.467 L 122.003,83.024 L 121.631,83.578 L 121.256,84.131 L 120.879,84.682 L 120.498,85.230 L 120.115,85.777 L 119.730,86.323 L 119.343,86.867 L 118.955,87.411 L 118.565,87.953 L 118.175,88.495 L 117.784,89.036 L 117.392,89.577 L 117.001,90.118 L 116.609,90.659 L 116.218,91.200 L 115.828,91.742 L 115.438,92.285 L 115.051,92.828 L 114.672,93.378 L 114.384,93.978 L 114.422,94.623 L 114.871,95.113 L 115.407,95.510 L 115.970,95.869 L 116.546,96.207 L 117.129,96.534 L 117.711,96.860 L 118.275,97.217 L 118.770,97.662 L 119.009,98.275 L 118.962,98.938 L 118.606,99.494 L 118.084,99.909 L 117.533,100.287 L 116.986,100.669 L 116.438,101.051 L 115.889,101.432 L 115.341,101.813 L 114.792,102.193 L 114.243,102.573 L 113.694,102.954 L 113.145,103.334 L 112.596,103.714 L 112.048,104.095 L 111.500,104.477 L 110.952,104.859 L 110.388,105.214 L 109.737,105.307 L 109.134,105.027 L 108.570,104.670 L 108.020,104.295 L 107.820,103.674 L 107.888,103.011 L 107.984,102.350 L 108.081,101.689 L 108.177,101.028 L 108.273,100.367 L 108.369,99.707 L 108.465,99.046 L 108.561,98.385 L 108.657,97.724 L 108.753,97.063 L 108.848,96.402 L 108.944,95.741 L 109.040,95.081 L 109.136,94.420 L 109.231,93.759 L 109.327,93.098 L 109.422,92.437 L 109.518,91.776 L 109.613,91.115 L 109.709,90.454 L 109.804,89.793 L 109.900,89.132 L 109.995,88.472 L 110.091,87.811 L 110.187,87.150 L 110.282,86.489 L 110.378,85.828 L 110.473,85.167 L 110.569,84.506 L 110.665,83.845 L 110.760,83.184 L 110.856,82.523 L 110.952,81.863 L 111.048,81.202 L 111.144,80.541 L 111.240,79.880 L 111.336,79.219 L 111.432,78.558 L 111.503,77.895 L 111.425,77.234 L 111.189,76.611 L 110.803,76.069 L 110.283,75.653 L 109.717,75.298 L 109.155,74.938 L 108.595,74.574 L 108.036,74.209 L 107.476,73.845 L 106.914,73.485 L 106.348,73.130 L 105.790,72.764 L 105.285,72.328 L 104.832,71.837 L 104.426,71.308 L 104.059,70.751 L 103.727,70.171 L 103.427,69.575 L 103.157,68.964 L 102.919,68.340 L 102.704,67.708 L 102.452,67.090 L 102.149,66.495 L 101.799,65.927 L 101.402,65.390 L 100.958,64.892 L 100.469,64.438 L 99.935,64.037 L 99.359,63.701 L 98.744,63.442 L 98.099,63.273 L 97.443,63.148 L 96.786,63.026 L 96.129,62.907 L 95.472,62.790 L 94.814,62.676 L 94.156,62.563 L 93.497,62.451 L 92.839,62.341 L 92.180,62.231 L 91.522,62.120 L 90.863,62.010 L 90.205,61.899 L 89.546,61.786 L 88.888,61.673 L 88.231,61.556 L 87.579,61.413 L 86.939,61.223 L 86.319,60.976 L 85.729,60.664 L 85.181,60.282 L 84.692,59.829 L 84.270,59.312 L 83.922,58.742 L 83.650,58.133 L 83.421,57.506 L 83.203,56.874 L 82.991,56.241 L 82.781,55.607 L 82.572,54.973 L 82.360,54.340 L 82.113,53.721 L 81.713,53.188 L 81.210,52.750 L 80.656,52.377 L 80.078,52.044 L 79.491,51.724 L 78.905,51.405 L 78.318,51.087 L 77.730,50.769 L 77.143,50.452 L 76.555,50.135 L 75.967,49.818 L 75.379,49.502 L 74.791,49.186 L 74.203,48.869 L 73.615,48.553 L 73.027,48.236 L 72.439,47.919 L 71.852,47.601 L 71.265,47.283 L 70.678,46.964 L 70.089,46.649 L 69.488,46.359 L 68.876,46.093 L 68.254,45.849 L 67.624,45.628 L 66.987,45.426 L 66.345,45.243 L 65.698,45.078 L 65.047,44.929 L 64.393,44.794 L 63.736,44.673 L 63.078,44.563 L 62.419,44.456 L 61.759,44.349 L 61.100,44.242 L 60.441,44.135 L 59.782,44.028 L 59.123,43.921 L 58.464,43.814 L 57.805,43.707 L 57.145,43.600 L 56.486,43.493 L 55.827,43.386 L 55.168,43.279 L 54.509,43.172 L 53.850,43.065 L 53.190,42.959 L 52.531,42.852 L 51.872,42.745 L 51.213,42.638 L 50.554,42.531 L 49.895,42.424 L 49.235,42.317 L 48.576,42.210 L 47.917,42.103 L 47.258,41.996 L 46.599,41.889 L 45.940,41.783 L 45.280,41.676 L 44.621,41.569 L 43.962,41.462 L 43.303,41.355 L 42.644,41.248 L 41.985,41.142 L 41.325,41.035 L 40.666,40.928 L 40.007,40.821 L 39.348,40.714 L 38.689,40.608 L 38.029,40.501 L 37.375,40.371 L 36.737,40.174 L 36.140,39.878 L 35.623,39.459 L 35.224,38.926 L 34.963,38.312 L 34.816,37.662 L 34.738,36.999 L 34.670,36.335 L 34.604,35.670 L 34.540,35.005 L 34.478,34.340 L 34.418,33.675 L 34.358,33.010 L 34.300,32.345 L 34.242,31.680 L 34.184,31.015 L 34.127,30.349 L 34.069,29.684 L 34.010,29.019 L 33.951,28.354 L 33.891,27.689 L 33.829,27.024 L 33.767,26.359 L 33.668,25.699 L 33.394,25.096 L 32.864,24.704 L 32.210,24.598 L 31.585,24.809 L 31.141,25.303 L 30.721,25.822 L 30.296,26.338 L 29.879,26.859 L 29.410,27.325 L 28.778,27.525 L 28.112,27.529 L 27.464,27.375 L 26.870,27.071 L 26.301,26.721 L 25.717,26.398 L 25.088,26.181 L 24.426,26.093 L 23.762,26.018 L 23.098,25.951 L 22.433,25.888 L 21.768,25.826 L 21.104,25.759 L 20.440,25.685 L 19.778,25.601 L 19.167,25.346 L 18.687,24.885 L 18.377,24.298 L 18.331,23.638 L 18.435,22.979 L 18.633,22.341 L 18.877,21.720 L 19.148,21.110 L 19.451,20.514 L 19.779,19.933 L 20.134,19.367 L 20.516,18.820 L 20.925,18.292 L 21.364,17.789 L 21.832,17.313 L 22.330,16.869 L 22.863,16.466 L 23.427,16.109 L 24.013,15.789 L 24.615,15.502 L 25.234,15.250 L 25.868,15.040 L 26.514,14.873 L 27.170,14.752 L 27.834,14.680 L 28.501,14.657 L 29.168,14.687 L 29.831,14.765 L 30.491,14.869 L 31.151,14.971 L 31.811,15.073 L 32.471,15.176 L 33.130,15.278 L 33.790,15.380 L 34.450,15.483 L 35.110,15.585 L 35.770,15.687 L 36.430,15.790 L 37.090,15.892 L 37.750,15.994 L 38.410,16.097 L 39.069,16.199 L 39.729,16.301 L 40.389,16.404 L 41.049,16.506 L 41.709,16.608 L 42.369,16.711 L 43.029,16.813 L 43.689,16.915 L 44.349,17.018 L 45.008,17.120 L 45.668,17.222 L 46.328,17.325 L 46.988,17.427 L 47.648,17.529 L 48.308,17.631 L 48.968,17.734 L 49.628,17.836 L 50.288,17.938 L 50.948,18.041 L 51.607,18.143 L 52.267,18.245 L 52.927,18.348 L 53.587,18.450 L 54.247,18.552 L 54.907,18.655 L 55.567,18.757 L 56.228,18.853 L 56.889,18.948 L 57.550,19.043 L 58.211,19.137 L 58.872,19.232 L 59.533,19.326 L 60.194,19.421 L 60.855,19.516 L 61.516,19.610 L 62.177,19.705 L 62.838,19.800 L 63.499,19.894 L 64.160,19.989 L 64.821,20.083 L 65.482,20.178 L 66.143,20.273 L 66.804,20.367 L 67.465,20.462 L 68.126,20.556 L 68.787,20.651 L 69.448,20.746 L 70.109,20.840 L 70.771,20.935 L 71.432,21.030 L 72.093,21.124 L 72.754,21.219 L 73.415,21.313 L 74.076,21.408 L 74.737,21.503 L 75.398,21.597 L 76.059,21.692 L 76.720,21.787 L 77.381,21.881 L 78.042,21.976 L 78.703,22.070 L 79.364,22.165 L 80.025,22.260 L 80.686,22.354 L 81.347,22.449 L 82.008,22.543 L 82.669,22.638 L 83.330,22.733 L 83.991,22.827" stroke="#000000" fill="none" /><path d="M 55.670,19.077 L 56.330,19.177 L 56.990,19.278 L 57.650,19.379 L 58.310,19.480 L 58.971,19.580 L 59.631,19.681 L 60.291,19.782 L 60.952,19.882 L 61.612,19.981 L 62.273,20.080 L 62.933,20.178 L 63.594,20.277 L 64.254,20.376 L 64.915,20.475 L 65.576,20.573 L 66.237,20.670 L 66.897,20.767 L 67.558,20.864 L 68.219,20.961 L 68.879,21.058 L 69.540,21.155 L 70.202,21.251 L 70.863,21.346 L 71.524,21.441 L 72.185,21.536 L 72.846,21.631 L 73.507,21.726 L 74.168,21.821 L 74.830,21.914 L 75.491,22.008 L 76.152,22.101 L 76.813,22.194 L 77.475,22.288 L 78.136,22.381 L 78.798,22.473 L 79.460,22.564 L 80.121,22.656 L 80.782,22.748 L 81.444,22.839 L 82.106,22.931 L 82.768,23.021 L 83.429,23.111 L 84.091,23.201 L 84.753,23.291 L 85.415,23.381 L 86.077,23.471 L 86.739,23.559 L 87.401,23.648 L 88.062,23.737 L 88.724,23.826 L 89.387,23.914 L 90.049,24.002 L 90.711,24.089 L 91.373,24.177 L 92.035,24.265 L 92.697,24.352 L 93.359,24.438 L 94.021,24.525 L 94.684,24.612 L 95.346,24.699 L 96.008,24.785 L 96.670,24.871 L 97.332,24.957 L 97.995,25.044 L 98.657,25.130 L 99.319,25.216 L 99.981,25.302 L 100.644,25.388 L 101.306,25.474 L 101.968,25.560 L 102.630,25.647 L 103.292,25.733 L 103.954,25.820 L 104.616,25.907 L 105.278,25.994 L 105.940,26.082 L 106.601,26.171 L 107.263,26.259 L 107.925,26.348 L 108.586,26.438 L 109.247,26.529 L 109.908,26.620 L 110.569,26.713 L 111.230,26.807 L 111.890,26.901 L 112.550,26.998 L 113.210,27.096 L 113.870,27.194 L 114.528,27.297 L 115.188,27.400 L 115.846,27.504 L 116.505,27.611 L 117.164,27.718 L 117.823,27.826 L 118.482,27.933 L 119.141,28.040 L 119.800,28.148 L 120.459,28.256 L 121.118,28.364 L 121.777,28.472 L 122.436,28.580 L 123.094,28.689 L 123.753,28.798 L 124.412,28.907 L 125.070,29.017 L 125.729,29.127 L 126.387,29.237 L 127.045,29.348 L 127.704,29.459 L 128.362,29.571 L 129.020,29.683 L 129.678,29.796 L 130.335,29.910 L 130.993,30.024 L 131.650,30.140 L 132.307,30.256 L 132.964,30.373 L 133.621,30.491 L 134.277,30.611 L 134.933,30.733 L 135.588,30.856 L 136.242,30.983 L 136.895,31.113 L 137.547,31.246 L 138.195,31.387 L 138.839,31.541 L 139.483,31.705 L 140.121,31.873 L 140.727,32.061 L 141.222,32.304 L 141.451,32.736 L 141.446,33.312 L 141.374,33.956 L 141.287,34.614 L 141.196,35.273 L 141.099,35.931 L 140.997,36.589 L 140.890,37.246 L 140.779,37.903 L 140.664,38.584 L 140.664,39.350 L 141.053,40.027 L 141.556,40.531 L 142.053,40.984 L 142.539,41.439 L 143.018,41.886 L 143.416,42.320 L 143.565,42.811 L 143.444,43.394 L 143.311,44.046 L 143.174,44.697 L 143.031,45.346 L 142.882,45.993 L 142.723,46.637 L 142.553,47.277 L 142.370,47.911 L 142.171,48.541 L 141.955,49.162 L 141.717,49.777 L 141.462,50.385 L 141.192,50.989 L 140.912,51.593 L 140.628,52.196 L 140.345,52.800 L 140.059,53.395 L 139.750,53.972 L 139.416,54.538 L 139.063,55.100 L 138.706,55.667 L 138.356,56.242 L 138.021,56.817 L 137.670,57.380 L 137.317,57.947 L 136.964,58.514 L 136.611,59.081 L 136.258,59.648 L 135.906,60.215 L 135.553,60.782 L 135.200,61.349 L 134.847,61.915 L 134.494,62.482 L 134.141,63.049 L 133.788,63.616 L 133.435,64.183 L 133.082,64.750 L 132.729,65.317 L 132.376,65.884 L 132.023,66.450 L 131.670,67.017 L 131.317,67.584 L 130.964,68.151 L 130.611,68.718 L 130.258,69.285 L 129.905,69.851 L 129.552,70.418 L 129.199,70.985 L 128.846,71.552 L 128.493,72.119 L 128.140,72.686 L 127.787,73.252 L 127.434,73.819 L 127.081,74.386 L 126.728,74.953 L 126.375,75.520 L 126.022,76.087 L 125.669,76.653 L 125.315,77.220 L 124.962,77.787 L 124.609,78.354 L 124.256,78.921 L 123.903,79.488 L 123.550,80.054 L 123.197,80.620 L 122.843,81.184 L 122.483,81.744 L 122.120,82.302 L 121.753,82.857 L 121.382,83.411 L 121.009,83.962 L 120.632,84.511 L 120.252,85.059 L 119.869,85.605 L 119.485,86.150 L 119.099,86.693 L 118.711,87.236 L 118.322,87.778 L 117.932,88.319 L 117.541,88.860 L 117.149,89.401 L 116.757,89.942 L 116.366,90.483 L 115.975,91.025 L 115.584,91.567 L 115.195,92.110 L 114.805,92.656 L 114.412,93.227 L 114.090,93.919 L 114.146,94.742 L 114.670,95.336 L 115.237,95.757 L 115.814,96.125 L 116.397,96.467 L 116.982,96.796 L 117.558,97.118 L 118.094,97.456 L 118.523,97.833 L 118.712,98.320 L 118.677,98.844 L 118.383,99.293 L 117.905,99.668 L 117.362,100.040 L 116.814,100.423 L 116.266,100.805 L 115.718,101.185 L 115.170,101.566 L 114.621,101.946 L 114.072,102.327 L 113.523,102.707 L 112.974,103.087 L 112.425,103.468 L 111.877,103.849 L 111.328,104.231 L 110.786,104.609 L 110.284,104.932 L 109.781,105.010 L 109.278,104.764 L 108.735,104.419 L 108.259,104.115 L 108.118,103.644 L 108.185,103.048 L 108.281,102.393 L 108.377,101.732 L 108.474,101.072 L 108.570,100.411 L 108.666,99.750 L 108.762,99.089 L 108.858,98.428 L 108.954,97.767 L 109.050,97.106 L 109.145,96.445 L 109.241,95.784 L 109.337,95.124 L 109.432,94.463 L 109.528,93.802 L 109.624,93.141 L 109.719,92.480 L 109.815,91.819 L 109.910,91.158 L 110.006,90.497 L 110.101,89.836 L 110.197,89.175 L 110.292,88.514 L 110.388,87.854 L 110.483,87.193 L 110.579,86.532 L 110.675,85.871 L 110.770,85.210 L 110.866,84.549 L 110.962,83.888 L 111.057,83.227 L 111.153,82.567 L 111.249,81.906 L 111.345,81.245 L 111.441,80.584 L 111.537,79.923 L 111.633,79.262 L 111.730,78.596 L 111.803,77.893 L 111.716,77.163 L 111.454,76.470 L 111.021,75.863 L 110.457,75.408 L 109.878,75.044 L 109.318,74.686 L 108.759,74.323 L 108.200,73.957 L 107.639,73.593 L 107.074,73.231 L 106.510,72.878 L 105.971,72.524 L 105.493,72.112 L 105.062,71.644 L 104.670,71.134 L 104.314,70.593 L 103.991,70.029 L 103.698,69.447 L 103.435,68.850 L 103.201,68.238 L 102.985,67.603 L 102.725,66.965 L 102.411,66.348 L 102.048,65.759 L 101.635,65.201 L 101.172,64.682 L 100.661,64.208 L 100.101,63.787 L 99.493,63.432 L 98.841,63.158 L 98.165,62.980 L 97.498,62.853 L 96.841,62.731 L 96.182,62.611 L 95.524,62.495 L 94.865,62.380 L 94.206,62.267 L 93.547,62.156 L 92.888,62.045 L 92.230,61.935 L 91.571,61.825 L 90.913,61.714 L 90.255,61.603 L 89.597,61.491 L 88.940,61.377 L 88.289,61.261 L 87.653,61.122 L 87.037,60.939 L 86.444,60.703 L 85.885,60.408 L 85.370,60.049 L 84.911,59.623 L 84.515,59.138 L 84.188,58.602 L 83.928,58.020 L 83.704,57.405 L 83.487,56.778 L 83.275,56.147 L 83.066,55.513 L 82.857,54.878 L 82.642,54.236 L 82.374,53.574 L 81.932,52.984 L 81.393,52.512 L 80.815,52.123 L 80.224,51.782 L 79.635,51.461 L 79.048,51.142 L 78.461,50.823 L 77.873,50.505 L 77.285,50.188 L 76.697,49.871 L 76.109,49.554 L 75.521,49.238 L 74.933,48.922 L 74.345,48.605 L 73.757,48.289 L 73.169,47.972 L 72.582,47.655 L 71.995,47.337 L 71.408,47.019 L 70.820,46.700 L 70.225,46.382 L 69.613,46.086 L 68.990,45.815 L 68.358,45.567 L 67.719,45.343 L 67.074,45.139 L 66.423,44.954 L 65.769,44.787 L 65.111,44.636 L 64.451,44.499 L 63.788,44.377 L 63.126,44.267 L 62.467,44.160 L 61.808,44.053 L 61.148,43.946 L 60.489,43.839 L 59.830,43.732 L 59.171,43.625 L 58.512,43.518 L 57.853,43.411 L 57.193,43.304 L 56.534,43.197 L 55.875,43.090 L 55.216,42.983 L 54.557,42.876 L 53.898,42.769 L 53.238,42.662 L 52.579,42.555 L 51.920,42.449 L 51.261,42.342 L 50.602,42.235 L 49.943,42.128 L 49.283,42.021 L 48.624,41.914 L 47.965,41.807 L 47.306,41.700 L 46.647,41.593 L 45.988,41.486 L 45.328,41.380 L 44.669,41.273 L 44.010,41.166 L 43.351,41.059 L 42.692,40.952 L 42.033,40.845 L 41.373,40.739 L 40.714,40.632 L 40.055,40.525 L 39.396,40.418 L 38.737,40.311 L 38.083,40.205 L 37.448,40.080 L 36.848,39.896 L 36.302,39.625 L 35.839,39.251 L 35.484,38.776 L 35.248,38.220 L 35.112,37.612 L 35.036,36.966 L 34.968,36.304 L 34.903,35.641 L 34.839,34.977 L 34.777,34.313 L 34.716,33.648 L 34.657,32.984 L 34.598,32.319 L 34.541,31.654 L 34.483,30.989 L 34.425,30.323 L 34.368,29.658 L 34.309,28.992 L 34.250,28.327 L 34.189,27.661 L 34.128,26.996 L 34.064,26.323 L 33.956,25.614 L 33.627,24.907 L 32.980,24.427 L 32.185,24.299 L 31.420,24.558 L 30.913,25.108 L 30.488,25.632 L 30.063,26.149 L 29.656,26.659 L 29.255,27.068 L 28.731,27.229 L 28.146,27.231 L 27.567,27.094 L 27.017,26.810 L 26.453,26.462 L 25.839,26.124 L 25.157,25.889 L 24.462,25.795 L 23.794,25.720 L 23.127,25.653 L 22.461,25.590 L 21.797,25.527 L 21.135,25.461 L 20.476,25.387 L 19.855,25.311 L 19.331,25.095 L 18.927,24.705 L 18.665,24.215 L 18.631,23.651 L 18.727,23.047 L 18.916,22.441 L 19.153,21.836 L 19.419,21.239 L 19.715,20.656 L 20.037,20.087 L 20.384,19.533 L 20.758,18.998 L 21.157,18.483 L 21.584,17.993 L 22.039,17.530 L 22.521,17.101 L 23.034,16.713 L 23.579,16.368 L 24.149,16.057 L 24.736,15.776 L 25.338,15.532 L 25.952,15.328 L 26.579,15.166 L 27.214,15.049 L 27.856,14.979 L 28.500,14.957 L 29.144,14.986 L 29.790,15.062 L 30.444,15.165 L 31.105,15.268 L 31.765,15.370 L 32.425,15.472 L 33.084,15.575 L 33.744,15.677 L 34.404,15.779 L 35.064,15.882 L 35.724,15.984 L 36.384,16.086 L 37.044,16.188 L 37.704,16.291 L 38.364,16.393 L 39.023,16.495 L 39.683,16.598 L 40.343,16.700 L 41.003,16.802 L 41.663,16.905 L 42.323,17.007 L 42.983,17.109 L 43.643,17.212 L 44.303,17.314 L 44.963,17.416 L 45.622,17.519 L 46.282,17.621 L 46.942,17.723 L 47.602,17.826 L 48.262,17.928 L 48.922,18.030 L 49.582,18.133 L 50.242,18.235 L 50.902,18.337 L 51.561,18.440 L 52.221,18.542 L 52.881,18.644 L 53.541,18.747 L 54.201,18.849 L 54.861,18.951 L 55.522,19.054 L 56.185,19.150 L 56.846,19.245 L 57.507,19.340 L 58.168,19.434 L 58.829,19.529 L 59.490,19.623 L 60.151,19.718 L 60.812,19.813 L 61.473,19.907 L 62.134,20.002 L 62.796,20.097 L 63.457,20.191 L 64.118,20.286 L 64.779,20.380 L 65.440,20.475 L 66.101,20.570 L 66.762,20.664 L 67.423,20.759 L 68.084,20.853 L 68.745,20.948 L 69.406,21.043 L 70.067,21.137 L 70.728,21.232 L 71.389,21.327 L 72.050,21.421 L 72.711,21.516 L 73.372,21.610 L 74.033,21.705 L 74.694,21.800 L 75.355,21.894 L 76.016,21.989 L 76.677,22.083 L 77.338,22.178 L 77.999,22.273 L 78.661,22.367 L 79.322,22.462 L 79.983,22.557 L 80.644,22.651 L 81.305,22.746 L 81.966,22.840 L 82.627,22.935 L 83.288,23.030 L 83.949,23.124" stroke="#ff0000" fill="none" stroke-dasharray="5,5" /><path d="M 55.760,18.483 L 56.421,18.584 L 57.081,18.685 L 57.741,18.786 L 58.401,18.887 L 59.061,18.987 L 59.721,19.088 L 60.381,19.189 L 61.041,19.289 L 61.701,19.387 L 62.362,19.486 L 63.022,19.585 L 63.682,19.684 L 64.343,19.783 L 65.003,19.881 L 65.663,19.980 L 66.324,20.076 L 66.984,20.173 L 67.645,20.270 L 68.306,20.367 L 68.966,20.464 L 69.627,20.561 L 70.287,20.657 L 70.948,20.752 L 71.609,20.847 L 72.270,20.942 L 72.931,21.037 L 73.592,21.132 L 74.253,21.227 L 74.914,21.320 L 75.575,21.414 L 76.236,21.507 L 76.897,21.600 L 77.558,21.694 L 78.219,21.787 L 78.880,21.878 L 79.542,21.970 L 80.203,22.062 L 80.865,22.153 L 81.526,22.245 L 82.187,22.336 L 82.849,22.426 L 83.510,22.516 L 84.172,22.607 L 84.834,22.697 L 85.495,22.787 L 86.157,22.876 L 86.818,22.965 L 87.480,23.053 L 88.142,23.142 L 88.804,23.231 L 89.466,23.319 L 90.127,23.407 L 90.789,23.494 L 91.451,23.582 L 92.113,23.670 L 92.775,23.757 L 93.437,23.843 L 94.099,23.930 L 94.762,24.017 L 95.424,24.104 L 96.086,24.190 L 96.748,24.276 L 97.410,24.362 L 98.072,24.449 L 98.734,24.535 L 99.396,24.621 L 100.059,24.707 L 100.721,24.793 L 101.383,24.879 L 102.045,24.965 L 102.708,25.052 L 103.370,25.138 L 104.032,25.225 L 104.694,25.312 L 105.356,25.400 L 106.019,25.487 L 106.681,25.576 L 107.343,25.665 L 108.005,25.753 L 108.667,25.844 L 109.329,25.935 L 109.991,26.026 L 110.653,26.119 L 111.314,26.213 L 111.976,26.307 L 112.638,26.404 L 113.298,26.503 L 113.960,26.601 L 114.621,26.704 L 115.281,26.808 L 115.941,26.912 L 116.601,27.019 L 117.260,27.126 L 117.919,27.233 L 118.579,27.341 L 119.238,27.448 L 119.897,27.556 L 120.556,27.664 L 121.215,27.772 L 121.874,27.880 L 122.533,27.988 L 123.192,28.097 L 123.851,28.206 L 124.510,28.315 L 125.169,28.425 L 125.828,28.535 L 126.487,28.645 L 127.145,28.756 L 127.804,28.868 L 128.462,28.980 L 129.121,29.092 L 129.779,29.205 L 130.438,29.319 L 131.096,29.433 L 131.754,29.549 L 132.412,29.665 L 133.070,29.783 L 133.728,29.901 L 134.386,30.021 L 135.043,30.143 L 135.700,30.267 L 136.357,30.394 L 137.014,30.525 L 137.671,30.659 L 138.328,30.802 L 138.983,30.958 L 139.633,31.124 L 140.287,31.297 L 140.955,31.506 L 141.641,31.874 L 142.033,32.588 L 142.045,33.344 L 141.970,34.028 L 141.882,34.694 L 141.790,35.358 L 141.692,36.021 L 141.590,36.683 L 141.482,37.344 L 141.371,38.004 L 141.261,38.639 L 141.244,39.195 L 141.527,39.659 L 141.970,40.097 L 142.461,40.543 L 142.949,41.001 L 143.446,41.466 L 143.938,42.025 L 144.164,42.783 L 144.032,43.511 L 143.899,44.168 L 143.761,44.823 L 143.617,45.478 L 143.465,46.133 L 143.304,46.786 L 143.131,47.437 L 142.944,48.085 L 142.740,48.729 L 142.518,49.369 L 142.274,50.001 L 142.013,50.624 L 141.738,51.238 L 141.455,51.847 L 141.171,52.451 L 140.887,53.057 L 140.594,53.666 L 140.273,54.266 L 139.928,54.850 L 139.571,55.419 L 139.216,55.982 L 138.872,56.549 L 138.535,57.127 L 138.180,57.697 L 137.827,58.264 L 137.474,58.831 L 137.121,59.398 L 136.768,59.965 L 136.415,60.532 L 136.062,61.099 L 135.709,61.666 L 135.356,62.233 L 135.003,62.800 L 134.650,63.366 L 134.297,63.933 L 133.944,64.500 L 133.591,65.067 L 133.238,65.634 L 132.885,66.201 L 132.532,66.768 L 132.179,67.334 L 131.826,67.901 L 131.473,68.468 L 131.120,69.035 L 130.767,69.602 L 130.414,70.169 L 130.061,70.736 L 129.708,71.302 L 129.355,71.869 L 129.002,72.436 L 128.649,73.003 L 128.296,73.570 L 127.943,74.137 L 127.590,74.703 L 127.237,75.270 L 126.884,75.837 L 126.531,76.404 L 126.178,76.971 L 125.825,77.537 L 125.472,78.104 L 125.119,78.671 L 124.766,79.238 L 124.413,79.805 L 124.059,80.372 L 123.706,80.939 L 123.349,81.506 L 122.987,82.070 L 122.622,82.631 L 122.253,83.190 L 121.880,83.746 L 121.504,84.300 L 121.126,84.852 L 120.744,85.402 L 120.360,85.950 L 119.975,86.496 L 119.587,87.041 L 119.199,87.585 L 118.809,88.128 L 118.418,88.670 L 118.027,89.212 L 117.635,89.753 L 117.244,90.294 L 116.852,90.835 L 116.461,91.376 L 116.071,91.917 L 115.682,92.459 L 115.296,93.001 L 114.931,93.528 L 114.678,94.037 L 114.698,94.505 L 115.072,94.890 L 115.577,95.263 L 116.127,95.613 L 116.695,95.947 L 117.275,96.272 L 117.865,96.603 L 118.456,96.978 L 119.016,97.491 L 119.306,98.230 L 119.247,99.032 L 118.828,99.695 L 118.262,100.150 L 117.704,100.534 L 117.157,100.915 L 116.609,101.297 L 116.060,101.678 L 115.512,102.059 L 114.963,102.440 L 114.414,102.820 L 113.865,103.200 L 113.316,103.580 L 112.767,103.961 L 112.219,104.342 L 111.671,104.723 L 111.118,105.109 L 110.492,105.495 L 109.693,105.604 L 108.991,105.290 L 108.405,104.921 L 107.780,104.475 L 107.522,103.705 L 107.590,102.974 L 107.687,102.307 L 107.784,101.646 L 107.880,100.985 L 107.976,100.324 L 108.072,99.664 L 108.168,99.003 L 108.264,98.342 L 108.360,97.681 L 108.456,97.020 L 108.552,96.359 L 108.647,95.698 L 108.743,95.038 L 108.839,94.377 L 108.934,93.716 L 109.030,93.055 L 109.125,92.394 L 109.221,91.733 L 109.316,91.072 L 109.412,90.411 L 109.507,89.750 L 109.603,89.090 L 109.699,88.429 L 109.794,87.768 L 109.890,87.107 L 109.985,86.446 L 110.081,85.785 L 110.176,85.124 L 110.272,84.463 L 110.368,83.802 L 110.464,83.141 L 110.559,82.480 L 110.655,81.820 L 110.751,81.159 L 110.847,80.498 L 110.943,79.837 L 111.039,79.176 L 111.135,78.521 L 111.203,77.897 L 111.133,77.305 L 110.924,76.752 L 110.585,76.275 L 110.109,75.897 L 109.557,75.551 L 108.992,75.190 L 108.431,74.825 L 107.872,74.460 L 107.314,74.097 L 106.753,73.738 L 106.186,73.383 L 105.609,73.003 L 105.076,72.544 L 104.603,72.031 L 104.181,71.482 L 103.803,70.908 L 103.462,70.313 L 103.155,69.703 L 102.880,69.078 L 102.637,68.442 L 102.423,67.813 L 102.179,67.215 L 101.888,66.642 L 101.551,66.095 L 101.170,65.579 L 100.744,65.102 L 100.276,64.668 L 99.769,64.287 L 99.225,63.969 L 98.648,63.726 L 98.033,63.565 L 97.388,63.442 L 96.732,63.321 L 96.076,63.202 L 95.420,63.086 L 94.763,62.971 L 94.105,62.859 L 93.447,62.747 L 92.789,62.637 L 92.131,62.527 L 91.472,62.416 L 90.813,62.306 L 90.154,62.195 L 89.495,62.082 L 88.836,61.968 L 88.172,61.850 L 87.504,61.703 L 86.840,61.506 L 86.193,61.248 L 85.572,60.920 L 84.993,60.516 L 84.473,60.034 L 84.026,59.485 L 83.657,58.882 L 83.372,58.245 L 83.138,57.606 L 82.919,56.971 L 82.706,56.336 L 82.497,55.701 L 82.288,55.068 L 82.078,54.443 L 81.852,53.868 L 81.493,53.393 L 81.027,52.988 L 80.498,52.632 L 79.931,52.306 L 79.348,51.988 L 78.762,51.669 L 78.175,51.351 L 77.588,51.033 L 77.000,50.716 L 76.413,50.399 L 75.825,50.083 L 75.237,49.766 L 74.649,49.450 L 74.061,49.133 L 73.473,48.817 L 72.885,48.500 L 72.297,48.183 L 71.709,47.865 L 71.122,47.547 L 70.536,47.228 L 69.953,46.917 L 69.363,46.632 L 68.761,46.370 L 68.150,46.130 L 67.529,45.912 L 66.901,45.714 L 66.267,45.533 L 65.627,45.370 L 64.983,45.222 L 64.336,45.088 L 63.685,44.968 L 63.029,44.859 L 62.371,44.752 L 61.711,44.645 L 61.052,44.538 L 60.393,44.431 L 59.734,44.324 L 59.075,44.217 L 58.416,44.110 L 57.757,44.003 L 57.097,43.896 L 56.438,43.789 L 55.779,43.682 L 55.120,43.575 L 54.461,43.469 L 53.802,43.362 L 53.142,43.255 L 52.483,43.148 L 51.824,43.041 L 51.165,42.934 L 50.506,42.827 L 49.847,42.720 L 49.187,42.613 L 48.528,42.506 L 47.869,42.399 L 47.210,42.293 L 46.551,42.186 L 45.892,42.079 L 45.232,41.972 L 44.573,41.865 L 43.914,41.758 L 43.255,41.651 L 42.596,41.545 L 41.937,41.438 L 41.277,41.331 L 40.618,41.224 L 39.959,41.117 L 39.300,41.010 L 38.641,40.904 L 37.976,40.796 L 37.301,40.662 L 36.626,40.453 L 35.978,40.130 L 35.406,39.667 L 34.964,39.075 L 34.677,38.405 L 34.520,37.713 L 34.440,37.032 L 34.371,36.365 L 34.305,35.699 L 34.242,35.034 L 34.179,34.368 L 34.119,33.702 L 34.059,33.037 L 34.001,32.371 L 33.943,31.706 L 33.885,31.040 L 33.828,30.375 L 33.770,29.710 L 33.712,29.045 L 33.652,28.380 L 33.592,27.716 L 33.530,27.052 L 33.469,26.395 L 33.380,25.784 L 33.161,25.284 L 32.747,24.980 L 32.234,24.897 L 31.750,25.059 L 31.369,25.498 L 30.953,26.012 L 30.529,26.527 L 30.103,27.060 L 29.565,27.582 L 28.824,27.822 L 28.078,27.827 L 27.360,27.657 L 26.723,27.333 L 26.150,26.980 L 25.595,26.672 L 25.019,26.473 L 24.389,26.390 L 23.730,26.317 L 23.069,26.250 L 22.405,26.187 L 21.739,26.124 L 21.072,26.057 L 20.404,25.983 L 19.700,25.891 L 19.002,25.597 L 18.448,25.066 L 18.088,24.380 L 18.031,23.625 L 18.143,22.911 L 18.350,22.242 L 18.600,21.604 L 18.878,20.981 L 19.186,20.373 L 19.521,19.780 L 19.884,19.202 L 20.275,18.643 L 20.693,18.102 L 21.144,17.585 L 21.625,17.096 L 22.140,16.637 L 22.692,16.220 L 23.274,15.851 L 23.876,15.522 L 24.494,15.227 L 25.130,14.969 L 25.783,14.752 L 26.449,14.580 L 27.127,14.456 L 27.813,14.381 L 28.503,14.357 L 29.192,14.388 L 29.872,14.468 L 30.537,14.572 L 31.197,14.675 L 31.857,14.777 L 32.516,14.879 L 33.176,14.982 L 33.836,15.084 L 34.496,15.186 L 35.156,15.289 L 35.816,15.391 L 36.476,15.493 L 37.136,15.596 L 37.796,15.698 L 38.456,15.800 L 39.115,15.903 L 39.775,16.005 L 40.435,16.107 L 41.095,16.210 L 41.755,16.312 L 42.415,16.414 L 43.075,16.516 L 43.735,16.619 L 44.395,16.721 L 45.054,16.823 L 45.714,16.926 L 46.374,17.028 L 47.034,17.130 L 47.694,17.233 L 48.354,17.335 L 49.014,17.437 L 49.674,17.540 L 50.334,17.642 L 50.994,17.744 L 51.653,17.847 L 52.313,17.949 L 52.973,18.051 L 53.633,18.154 L 54.293,18.256 L 54.953,18.358 L 55.611,18.460 L 56.270,18.556 L 56.931,18.651 L 57.592,18.746 L 58.253,18.840 L 58.914,18.935 L 59.575,19.029 L 60.236,19.124 L 60.897,19.219 L 61.558,19.313 L 62.219,19.408 L 62.881,19.503 L 63.542,19.597 L 64.203,19.692 L 64.864,19.786 L 65.525,19.881 L 66.186,19.976 L 66.847,20.070 L 67.508,20.165 L 68.169,20.260 L 68.830,20.354 L 69.491,20.449 L 70.152,20.543 L 70.813,20.638 L 71.474,20.733 L 72.135,20.827 L 72.796,20.922 L 73.457,21.016 L 74.118,21.111 L 74.779,21.206 L 75.440,21.300 L 76.101,21.395 L 76.762,21.490 L 77.423,21.584 L 78.084,21.679 L 78.746,21.773 L 79.407,21.868 L 80.068,21.963 L 80.729,22.057 L 81.390,22.152 L 82.051,22.246 L 82.712,22.341 L 83.373,22.436 L 84.034,22.530" stroke="#0000ff" fill="none" stroke-dasharray="5,5" /></svg>