<?xml version="1.0" encoding="UTF-8" standalone="no"?>
<svg
   clip-rule="evenodd"
   stroke-miterlimit="10"
   width="691px"
   height="639px"
   viewBox="0 0 691 639"
   version="1.1"
   id="svg79"
   sodipodi:docname="Circuit_Nürburgring-1927.svg"
   inkscape:version="1.3 (0e150ed6c4, 2023-07-21)"
   xmlns:inkscape="http://www.inkscape.org/namespaces/inkscape"
   xmlns:sodipodi="http://sodipodi.sourceforge.net/DTD/sodipodi-0.dtd"
   xmlns="http://www.w3.org/2000/svg"
   xmlns:svg="http://www.w3.org/2000/svg">
  <sodipodi:namedview
     id="namedview79"
     pagecolor="#505050"
     bordercolor="#ffffff"
     borderopacity="1"
     inkscape:showpageshadow="0"
     inkscape:pageopacity="0"
     inkscape:pagecheckerboard="1"
     inkscape:deskcolor="#505050"
     inkscape:zoom="2.4319249"
     inkscape:cx="332.8639"
     inkscape:cy="494.05309"
     inkscape:window-width="1920"
     inkscape:window-height="991"
     inkscape:window-x="-9"
     inkscape:window-y="-9"
     inkscape:window-maximized="1"
     inkscape:current-layer="svg79" />
  <defs
     id="defs1" />
  <g
     id="g79"
     inkscape:label="g79">
    <path
       d="m 374.43,348.73 c -12.05,7.56 -31.17,18.85 -36.33,22.75 -12.46,9.42 -23.82,30.83 -27.48,33.62 -5.26,4.01 -8.48,6.33 -13.56,9.56 -2.61,1.66 -5.46,3.54 -7.54,5.56 -5.56,5.41 -29.3,29.16 -46.14,46.13 -1.14,1.26 -2.49,2.78 -2.75,4.46 -0.4,2.64 -0.21,3.56 0.22,5.86 0.72,3.88 0.97,8.74 3.33,11.91 3.64,4.91 4.35,4.27 4.69,5.99 0.62,3.18 -1.1,10.07 -0.32,13.08 0.48,1.85 2.31,3.73 2.56,5.85 0.2,1.61 -1.04,3.75 -2.74,5.89 -2.48,3.11 -2.6,3.91 -3.73,7.32 -0.79,2.41 -0.32,10.07 -1.12,11.69 -0.93,1.86 -3.84,4.15 -5.04,5.84 -1.23,1.74 -1.2,2.72 -2.16,4.46 -2.33,3.71 -5,7.16 -7.19,10.96 -5.39,9.35 -7,12.44 -9.53,13.13 -0.93,0.26 -6.04,0.2 -8,0.5 -2.21,0.32 -3.73,1.36 -5.58,2.02 -1.78,0.61 -2.67,0.9 -4.72,1.62 -2.27,0.79 -4.69,2.27 -6.74,3.55 -2.32,1.45 -4.96,3.04 -7.51,4.18 -1.3,0.58 -1.93,0.88 -3.23,0.99 -2.31,0.19 -4.96,-0.72 -7.2,-0.81 -1.9,-0.08 -3.35,-0.2 -5.52,0.36 -2.16,0.55 -3.83,1.27 -5.67,2.47 -3.04,1.98 -6.19,5.68 -9.17,7.19 -5.45,2.76 -8.91,4.53 -14.21,6.57 -1.08,0.41 -3.41,0.66 -4.36,0.54 -1.34,-0.18 -2.33,-0.48 -3.37,-0.95 -8.84,-4.01 -23.78,-11.72 -25.71,-12.9 -2.07,-1.26 -3.45,-1.54 -3.73,-3.15 -0.19,-1.06 -0.08,-2.74 0.63,-3.86 1.04,-1.67 1.18,-1.75 2.02,-3.46 0.7,-1.44 1.25,-3.67 2.02,-5.17 3.85,-7.51 3.68,-9.01 7.65,-14.25 5.03,-6.66 11.65,-11.13 15.28,-16.19 4.63,-6.44 7.31,-11.02 12.09,-16 1.19,-1.24 3.73,-1.05 7.02,-2.83 1.97,-1.07 4.93,-3.51 7.77,-5.8 4.25,-3.42 7.14,-7.24 10.16,-11.42 2,-2.76 5.55,-7.01 12.09,-13.36 1.35,-1.31 2.86,-1.45 3.73,-0.76 1.72,1.37 1.3,3.56 2.52,5.35 2.25,3.3 6.29,4.71 11.09,3.54 4.89,-1.18 5.93,-6.38 9,-9.59 25.71,-26.97 66.15,-66.29 74.96,-75.18 0.47,-0.47 1.97,-3.56 1.59,-6.01 -0.46,-2.98 -6.4,-9.17 -9.34,-10.58 -5.27,-2.52 -5.66,9.53 -7.91,13.58 -1.24,2.23 -2.09,4.72 -3.96,6.38 -3.68,3.28 -7.91,5.81 -12.72,5.8 -5.01,-0.01 -6.76,-3.11 -12.68,-4.99 -4.06,-1.29 -11.36,-2.1 -13.62,-1.03 -1.82,0.86 -1.53,0.99 -2.97,1.17 -1.84,0.23 -3.54,-0.81 -4.9,-2.25 -2.09,-2.23 -2.97,-3.82 -4.99,-6.48 -1.47,-1.93 -3.9,-3.13 -5.21,-5.39 -0.88,-1.51 -0.54,-2.32 -2.57,-3.87 -1.43,-1.09 -7.59,-0.99 -11.73,-2.42 -3.19,-1.11 -2.91,-5.36 -5.04,-8.64 -2.09,-3.22 -12.84,-9.59 -18.97,-14.74 -7.28,-7.65 -7.59,-8.41 -10.52,-11.69 -2.93,-3.28 -5.47,-5.82 -7.82,-9.08 -1.62,-2.25 -3.15,-5.58 -2.7,-9.44 0.99,-8.54 5.84,-15.38 5.93,-25.09 0.07,-6.66 0.54,-9.71 -0.98,-20.68 -0.62,-4.43 -2.13,-7.45 -3.78,-11.6 -3.81,-9.56 -8.11,-18.99 -13.13,-28.24 -1.88,-3.47 -4.61,-6.16 -7.73,-8 -3.51,-2.07 -7.77,-3.79 -11.69,-5.75 -1.98,-0.99 -2.9,-3.26 -2.52,-5.22 0.76,-3.89 6.27,-4.17 12.77,-7.19 7.89,-3.68 11.38,-5.81 15.83,-9.71 5.51,-4.84 10.43,-8.19 15.82,-13.4 3.76,-3.63 6.99,-5.92 9.98,-11.87 1.68,-3.34 2.85,-6.1 3.78,-9.98 1.35,-5.67 0.12,-10.62 0.99,-13.67 1.04,-3.64 5.17,-4.28 5.75,-7.01 0.54,-2.52 -2.5,-5.49 -1.08,-9.17 0.87,-2.26 6.64,-5.25 10.79,-8.9 3.33,-2.93 2.88,-3.63 6.12,-7.11 6.19,-6.65 6.63,-5.68 13.3,-13.22 2.79,-3.14 4.77,-6 5.58,-9.98 1.05,-5.17 -1.35,-9.8 -3.15,-13.93 -0.58,-1.35 -1.62,-2.16 -3.32,-2.79 -1.44,-0.53 -3.75,0.17 -5.31,-0.45 -2.7,-1.08 -4.31,-1.9 -6.83,-3.87 -3.11,-2.42 -4.44,-4.59 -4.59,-6.47 -0.18,-2.34 1.23,-3.18 2.97,-3.96 3.85,-1.73 9.46,-4.87 13.4,-8.9 2.21,-2.27 1.11,-5.13 2.33,-8.18 0.69,-1.72 2.22,-4.53 4.23,-6.48 2.88,-2.78 6.99,-4.24 11.96,-1.97 5.12,2.33 9.35,4.94 14.3,9.53 1.35,1.26 0.86,5.23 3.68,5.12 3.75,-0.15 1.84,-2.6 5.76,-4.49 6.17,-2.99 14.55,-3.32 20.77,-1.71 2.91,0.72 6.3,2.44 9.26,1.98 3.84,-0.6 5.25,-3.81 5.57,-5.31 0.75,-3.42 -0.11,-8.42 1.8,-10.88 1.96,-2.51 2.93,-3.86 15.2,-7.82 11.64,-3.76 15.83,-1.61 21.85,-3.96 6.87,-2.68 12.36,-11.31 17.71,-10.97 2.82,0.18 5.5,1.66 6.03,4.95 0.94,5.92 -0.5,11.76 -0.54,17.17 -0.09,12.14 3.42,18.94 5.84,21.58 4.79,5.21 9.89,8.32 15.74,11.06 4.4,2.07 7.91,4.06 14.02,4.14 11.56,0.15 20.33,0.09 29.14,2.07 5.69,1.27 11.55,2.73 16.36,6.02 3.69,2.52 5.71,4.91 9.26,7.1 6.57,4.05 11.3,5.92 16.73,5.13 4.28,-0.63 10.34,-4.61 14.92,-8.45 3.87,-3.24 7.42,-8.18 12.41,-9.26 7.47,-1.62 11.14,-0.67 16.1,-2.7 4.39,-1.8 6.61,-1.84 7.82,-0.72 3.1,2.87 0.82,6.11 -1.35,7.73 -5.03,3.78 -13.55,10.64 -16,11.24 -5.92,1.46 -4.79,6.43 -3.47,7.73 3.07,3.04 7.7,0.85 8.3,-1.37 0.44,-1.66 1.71,-2.7 4.22,-4.5 2.88,-2.06 5.88,-3.65 11.33,-5.57 2.38,-0.84 3.96,-1.69 10.35,-2.43 4.61,-0.54 9.3,-6.54 13.03,-11.88 4.8,-6.88 0.29,-8.05 1.38,-12.01 0.9,-3.3 1.78,-6.71 6.02,-9.62 3.68,-2.53 23.03,3.97 24.46,4.85 3.42,2.12 5.08,6.17 8.27,7.65 3.69,1.7 5.2,1.73 8.27,3.14 2.16,0.99 8.91,10.68 8.99,13.31 0.14,4.33 -7.33,16.17 -2.87,20.05 3.93,3.43 5.09,2.46 9.53,4.68 3.05,1.52 3.05,6.48 3.24,9.89 0.17,3.33 0.09,7.73 -2.61,9.17 -5.4,2.88 -12.7,-1.53 -18.79,0.18 -3.25,0.91 -2.16,5.13 -6.21,10.25 -4.7,5.95 -6.92,12.58 -6.92,16.28 0,5.48 0.54,12.49 0.09,17.44 -0.24,2.66 -1.75,5.64 -4.14,6.83 -3.96,1.98 -7.69,1.63 -10.97,3.96 -3.51,2.49 -5.57,5.24 -8.81,8.81 -3.15,3.47 -3.69,5.55 -5.67,9.8 -1.7,3.69 -3.14,5.22 -5.12,7.56 -1.76,2.07 -4.48,3.07 -6.75,4.58 -2.15,1.44 -4.11,3.81 -7.73,4.77 -9.82,2.58 -19.1,6.79 -28.5,7.46 -6.19,0.44 -8.27,-7.28 -14.39,-7.19 -2.56,0.03 -5,1.41 -7.19,2.96 -3.73,2.64 -7.48,4.42 -7.2,7.56 0.91,9.98 19.52,9.35 24.46,17.08 1.62,2.53 4.01,6.13 3.6,12.23 -0.22,3.33 -2.91,6.09 -5.4,8.09 -5.79,4.68 -26.07,16.19 -39.38,24.19 z m -0.45,-0.54"
       stroke="#000000"
       stroke-width="6"
       fill="none"
       id="path4"
       style="display:inline"
       sodipodi:insensitive="true" />
    <g
       style="fill-rule :nonzero;"
       id="g26">
      <path
         d="M 270.55 432.93 L 273.67 436.03 L 270.57 439.14 L 267.46 436.05 Z M 270.55 432.93 "
         style="fill :#000000;"
         id="path5" />
      <path
         d="M 267.46 436.05 L 270.57 439.14 L 267.48 442.25 L 264.37 439.16 Z M 267.46 436.05 "
         style="fill :#FFFFFF;"
         id="path6" />
      <path
         d="M 264.37 439.16 L 267.48 442.25 L 264.39 445.36 L 261.28 442.27 Z M 264.37 439.16 "
         style="fill :#000000;"
         id="path7" />
      <path
         d="M 273.64 436.00 L 276.75 439.09 L 273.66 442.20 L 270.55 439.11 Z M 273.64 436.00 "
         style="fill :#FFFFFF;"
         id="path8" />
      <path
         d="M 267.45 442.22 L 270.57 445.32 L 267.47 448.43 L 264.36 445.34 Z M 267.45 442.22 "
         style="fill :#FFFFFF;"
         id="path9" />
      <path
         d="M 270.52 439.08 L 273.63 442.18 L 270.54 445.29 L 267.43 442.20 Z M 270.52 439.08 "
         style="fill :#000000;"
         id="path10" />
      <path
         d="M 276.72 439.06 L 279.84 442.16 L 276.74 445.27 L 273.63 442.18 Z M 276.72 439.06 "
         style="fill :#000000;"
         id="path11" />
      <path
         d="M 273.63 442.18 L 276.74 445.27 L 273.65 448.38 L 270.54 445.29 Z M 273.63 442.18 "
         style="fill :#FFFFFF;"
         id="path12" />
      <path
         d="M 270.54 445.29 L 273.65 448.38 L 270.56 451.49 L 267.45 448.40 Z M 270.54 445.29 "
         style="fill :#000000;"
         id="path13" />
      <path
         d="M 279.81 442.13 L 282.92 445.22 L 279.83 448.33 L 276.72 445.24 Z M 279.81 442.13 "
         style="fill :#FFFFFF;"
         id="path14" />
      <path
         d="M 273.62 448.35 L 276.74 451.45 L 273.64 454.56 L 270.53 451.47 Z M 273.62 448.35 "
         style="fill :#FFFFFF;"
         id="path15" />
      <path
         d="M 276.69 445.22 L 279.80 448.31 L 276.71 451.42 L 273.60 448.33 Z M 276.69 445.22 "
         style="fill :#000000;"
         id="path16" />
      <path
         d="M 282.95 445.03 L 286.06 448.12 L 282.97 451.24 L 279.85 448.14 Z M 282.95 445.03 "
         style="fill :#000000;"
         id="path17" />
      <path
         d="M 279.85 448.14 L 282.97 451.24 L 279.87 454.35 L 276.76 451.26 Z M 279.85 448.14 "
         style="fill :#FFFFFF;"
         id="path18" />
      <path
         d="M 276.76 451.26 L 279.87 454.35 L 276.78 457.46 L 273.67 454.37 Z M 276.76 451.26 "
         style="fill :#000000;"
         id="path19" />
      <path
         d="M 290.12 435.14 L 293.89 439.15 L 284.75 444.05 Z M 290.12 435.14 "
         style="fill :#FF0000"
         id="path20" />
    </g>
  </g>
</svg>
