<?xml version="1.0" encoding="UTF-8" standalone="no"?>
<!-- Created with Inkscape (http://www.inkscape.org/) -->

<svg
   width="1294.7091"
   height="824.55493"
   id="svg2383"
   sodipodi:version="0.32"
   inkscape:version="1.3 (0e150ed6c4, 2023-07-21)"
   version="1.0"
   sodipodi:docname="Istanbul_park.svg"
   inkscape:output_extension="org.inkscape.output.svg.inkscape"
   inkscape:export-filename="D:\Images\Race Tracks\Istanbul Park.png"
   inkscape:export-xdpi="90.015755"
   inkscape:export-ydpi="90.015755"
   xmlns:inkscape="http://www.inkscape.org/namespaces/inkscape"
   xmlns:sodipodi="http://sodipodi.sourceforge.net/DTD/sodipodi-0.dtd"
   xmlns:xlink="http://www.w3.org/1999/xlink"
   xmlns="http://www.w3.org/2000/svg"
   xmlns:svg="http://www.w3.org/2000/svg"
   xmlns:rdf="http://www.w3.org/1999/02/22-rdf-syntax-ns#"
   xmlns:cc="http://creativecommons.org/ns#"
   xmlns:dc="http://purl.org/dc/elements/1.1/">
  <defs
     id="defs2385">
    <clipPath
       clipPathUnits="userSpaceOnUse"
       id="clipPath9724">
      <path
         id="path9726"
         d="M 727.23942,720.30758 C 1333.36,720.30758 1939.4804,720.30758 2545.601,720.30758 C 2545.601,974.89282 2545.601,1229.4779 2545.601,1484.0631 C 1939.4804,1484.0631 1333.36,1484.0631 727.23942,1484.0631 C 727.23942,1229.4779 727.23942,974.89282 727.23942,720.30758 L 727.23942,720.30758 z"
         style="fill:#6a6a6a;fill-opacity:1;fill-rule:nonzero;stroke:#010101;stroke-width:0.94262564;stroke-linecap:round;stroke-linejoin:round;stroke-miterlimit:4;stroke-dasharray:none;stroke-dashoffset:0;stroke-opacity:1" />
    </clipPath>
    <clipPath
       clipPathUnits="userSpaceOnUse"
       id="clipPath3490">
      <rect
         style="opacity:1;fill:#006a00;fill-opacity:1;fill-rule:nonzero;stroke:none"
         id="rect3492"
         width="1511.7875"
         height="1003.7479"
         x="683.1405"
         y="104.1039"
         transform="matrix(-0.7183395,0.6956928,-0.6956928,-0.7183395,0,0)" />
    </clipPath>
    <pattern
       patternUnits="userSpaceOnUse"
       width="18.181098"
       height="18.137641"
       patternTransform="matrix(0.1737876,0,0,0.1737876,763.47719,1693.9071)"
       id="pattern4912">
      <g
         id="g4907"
         transform="translate(-1025.5348,-1215.2814)">
        <rect
           style="opacity:1;fill:#000000;fill-opacity:1;stroke:none;stroke-width:0.5;stroke-linecap:round;stroke-linejoin:round;stroke-miterlimit:4;stroke-dasharray:none;stroke-dashoffset:0;stroke-opacity:1"
           id="rect4899"
           width="18.172573"
           height="18.095789"
           x="1025.5348"
           y="1215.2814" />
        <rect
           style="opacity:1;fill:#ffffff;fill-opacity:1;stroke:none;stroke-width:0.5;stroke-linecap:round;stroke-linejoin:round;stroke-miterlimit:4;stroke-dasharray:none;stroke-dashoffset:0;stroke-opacity:1"
           id="rect4903"
           width="9.0746527"
           height="9.0746527"
           x="1025.5348"
           y="1215.2814" />
        <rect
           style="opacity:1;fill:#ffffff;fill-opacity:1;stroke:none;stroke-width:0.5;stroke-linecap:round;stroke-linejoin:round;stroke-miterlimit:4;stroke-dasharray:none;stroke-dashoffset:0;stroke-opacity:1"
           id="rect4905"
           width="9.0746527"
           height="9.0746527"
           x="1034.6412"
           y="1224.3444" />
      </g>
    </pattern>
    <pattern
       inkscape:collect="always"
       xlink:href="#pattern4912"
       id="pattern4166"
       patternTransform="matrix(0.4562459,1.6264824e-8,-1.6264824e-8,0.4562459,-1778.2267,454.6431)" />
    <clipPath
       clipPathUnits="userSpaceOnUse"
       id="clipPath3494">
      <rect
         style="opacity:1;fill:#006a00;fill-opacity:1;fill-rule:nonzero;stroke:none"
         id="rect3496"
         width="2168.1926"
         height="1468.4177"
         x="-4232.8457"
         y="-2372.1296"
         transform="matrix(-0.9472965,-0.3203582,0.9519016,-0.3064038,0,0)" />
    </clipPath>
    <clipPath
       clipPathUnits="userSpaceOnUse"
       id="clipPath9716">
      <path
         id="path9718"
         d="M 871.13547,932.36346 C 1314.8756,1345.252 1758.6155,1758.1404 2202.3556,2171.029 C 2375.7787,1984.6474 2549.2018,1798.266 2722.6249,1611.8845 C 2278.8848,1198.996 1835.1448,786.10758 1391.4047,373.21904 C 1217.9816,559.60052 1044.5586,745.98194 871.13547,932.36346 z"
         style="fill:#6a6a6a;fill-opacity:1;fill-rule:nonzero;stroke:#010101;stroke-width:0.9426257;stroke-linecap:round;stroke-linejoin:round;stroke-miterlimit:4;stroke-dasharray:none;stroke-dashoffset:0;stroke-opacity:1" />
    </clipPath>
    <inkscape:perspective
       sodipodi:type="inkscape:persp3d"
       inkscape:vp_x="0 : 526.18109 : 1"
       inkscape:vp_y="0 : 1000 : 0"
       inkscape:vp_z="744.09448 : 526.18109 : 1"
       inkscape:persp3d-origin="372.04724 : 350.78739 : 1"
       id="perspective2391" />
    <inkscape:perspective
       id="perspective2400"
       inkscape:persp3d-origin="372.04724 : 350.78739 : 1"
       inkscape:vp_z="744.09448 : 526.18109 : 1"
       inkscape:vp_y="0 : 1000 : 0"
       inkscape:vp_x="0 : 526.18109 : 1"
       sodipodi:type="inkscape:persp3d" />
    <inkscape:perspective
       id="perspective3200"
       inkscape:persp3d-origin="372.04724 : 350.78739 : 1"
       inkscape:vp_z="744.09448 : 526.18109 : 1"
       inkscape:vp_y="0 : 1000 : 0"
       inkscape:vp_x="0 : 526.18109 : 1"
       sodipodi:type="inkscape:persp3d" />
    <inkscape:perspective
       id="perspective3827"
       inkscape:persp3d-origin="372.04724 : 350.78739 : 1"
       inkscape:vp_z="744.09448 : 526.18109 : 1"
       inkscape:vp_y="0 : 1000 : 0"
       inkscape:vp_x="0 : 526.18109 : 1"
       sodipodi:type="inkscape:persp3d" />
    <inkscape:perspective
       id="perspective3872"
       inkscape:persp3d-origin="372.04724 : 350.78739 : 1"
       inkscape:vp_z="744.09448 : 526.18109 : 1"
       inkscape:vp_y="0 : 1000 : 0"
       inkscape:vp_x="0 : 526.18109 : 1"
       sodipodi:type="inkscape:persp3d" />
  </defs>
  <sodipodi:namedview
     id="base"
     pagecolor="#ffffff"
     bordercolor="#ffffff"
     borderopacity="0.0"
     inkscape:pageopacity="0.0"
     inkscape:pageshadow="0"
     inkscape:zoom="0.94461373"
     inkscape:cx="667.4686"
     inkscape:cy="423.98283"
     inkscape:document-units="px"
     inkscape:current-layer="layer1"
     showgrid="false"
     showborder="false"
     inkscape:window-width="1920"
     inkscape:window-height="991"
     inkscape:window-x="-9"
     inkscape:window-y="-9"
     showguides="true"
     inkscape:guide-bbox="true"
     inkscape:showpageshadow="0"
     inkscape:pagecheckerboard="1"
     inkscape:deskcolor="#505050"
     inkscape:window-maximized="1" />
  <metadata
     id="metadata2388">
    <rdf:RDF>
      <cc:Work
         rdf:about="">
        <dc:format>image/svg+xml</dc:format>
        <dc:type
           rdf:resource="http://purl.org/dc/dcmitype/StillImage" />
        <dc:date>7-30-2008</dc:date>
        <dc:creator>
          <cc:Agent>
            <dc:title>Will Pittenger</dc:title>
          </cc:Agent>
        </dc:creator>
        <dc:publisher>
          <cc:Agent>
            <dc:title>Will Pittenger</dc:title>
          </cc:Agent>
        </dc:publisher>
        <dc:subject>
          <rdf:Bag>
            <rdf:li>Formula 1</rdf:li>
            <rdf:li>Istanbul Park</rdf:li>
            <rdf:li>Turkey</rdf:li>
            <rdf:li>road course</rdf:li>
            <rdf:li>racin</rdf:li>
          </rdf:Bag>
        </dc:subject>
        <dc:description>Create in Inkscape with data from Google Earth</dc:description>
        <cc:license
           rdf:resource="http://creativecommons.org/licenses/by-sa/3.0/" />
      </cc:Work>
      <cc:License
         rdf:about="http://creativecommons.org/licenses/by-sa/3.0/">
        <cc:permits
           rdf:resource="http://creativecommons.org/ns#Reproduction" />
        <cc:permits
           rdf:resource="http://creativecommons.org/ns#Distribution" />
        <cc:requires
           rdf:resource="http://creativecommons.org/ns#Notice" />
        <cc:requires
           rdf:resource="http://creativecommons.org/ns#Attribution" />
        <cc:permits
           rdf:resource="http://creativecommons.org/ns#DerivativeWorks" />
        <cc:requires
           rdf:resource="http://creativecommons.org/ns#ShareAlike" />
      </cc:License>
    </rdf:RDF>
  </metadata>
  <g
     inkscape:label="Layer 1"
     inkscape:groupmode="layer"
     id="layer1"
     transform="translate(-697.01933,-194.19807)">
    <path
       style="display:inline;fill:none;fill-rule:evenodd;stroke:#000000;stroke-width:10;stroke-linecap:butt;stroke-linejoin:round;stroke-miterlimit:4;stroke-dasharray:none;stroke-opacity:1"
       d="m 270.37818,830.97378 c 74.83602,1.03071 105.82955,5.50236 104.83136,-22.58136 -0.87296,-24.03759 -5.28266,-46.43411 -5.53318,-70.735 -0.14826,-14.38153 5.59318,-29.26168 11.96364,-41.27454 7.58712,-14.30714 15.853,-28.13453 29.90909,-37.68546 17.04936,-11.58482 36.41961,-21.62263 56.22909,-27.51636 28.44385,-8.46263 58.20926,-14.26725 87.93273,-17.19773 26.90441,-2.65255 55.16605,-2.08005 81.95091,0.44864 44.42058,4.17952 52.13347,9.23912 81.35273,17.49681 12.5715,3.55285 31.94164,9.85389 43.66727,7.77636 32.09827,-5.68711 51.90705,-29.70166 50.84545,-61.31363 -0.53682,-15.9852 0.373,-31.39227 1.19637,-46.50864 0.52272,-9.74631 10.33652,-19.27008 23.17954,-15.85181 21.94853,5.84176 41.25941,14.10361 65.35137,17.04818 11.79895,1.44209 31.25369,6.4325 37.98454,-3.43955 8.64587,-12.68079 4.854,-40.90876 3.14046,-59.81818 -0.9157,-10.10503 -9.22292,-22.83973 -17.34728,-29.46045 C 838.62486,368.43766 750.15275,309.04333 664.2809,236.5306 c -5.9774,-5.04749 -11.7316,-17.69618 -7.62681,-30.95591 3.52668,-11.39227 13.60615,-21.0161 30.05864,-26.61909 13.92421,-4.74197 41.91972,-6.66909 56.52818,-0.89727 64.02388,25.29592 117.38257,51.94156 181.54818,81.05364 9.37391,4.25297 21.00632,3.00903 31.10546,1.19636 21.00633,-3.77037 41.8425,-10.72227 61.46325,-18.69319 5.9017,-2.39757 10.9916,-7.48626 14.5058,-12.86091 10.0446,-15.36232 20.0676,-32.08841 25.7218,-49.0509 2.3216,-6.96478 0.4522,-21.11814 -2.6918,-27.965 -14.8015,-32.23436 -29.1339,-60.788696 -49.9481,-88.830001 C 997.04694,52.267208 981.29442,46.930014 968.75546,43.168328 957.36713,39.751832 945.44876,40.055042 933.16364,41.373783 804.27785,55.208981 679.33667,71.607941 550.62636,84.89151 543.65404,85.61109 535.4144,90.301828 532.98,95.509238 c -4.90996,10.502902 3.08984,27.354752 7.02864,41.573632 2.53616,9.15542 4.99438,20.30987 0.59818,28.71273 -58.61229,112.03108 -114.47638,219.85582 -182.8941,326.00909 -8.94713,13.88189 -39.8916,33.87236 -55.33181,38.43319 -173.83629,51.34883 -317.59831,92.56693 -485.275,146.1059 -13.76228,4.39428 -26.37651,9.15076 -25.42273,21.23545 0.87548,11.09263 2.85876,21.48885 11.96364,26.32001 10.43573,5.53732 34.30435,4.04015 42.02227,10.16909 5.84087,4.63834 3.11879,20.45941 0,29.75954 -6.71205,20.01507 -17.75328,36.00221 -21.38499,55.48137 -0.75496,4.04932 5.99628,10.25869 10.46817,10.31863 144.275985,1.93399 290.18752,-0.65719 435.62591,1.34591 z"
       id="path3833"
       transform="translate(927.10531,159.74818)"
       sodipodi:nodetypes="csssssssssssssssssssssssssssssssssssssssssss" />
    <g
       style="display:inline"
       transform="matrix(0.7187154,0.6953043,0.6953043,-0.7187154,-467.75313,586.4483)"
       id="g4801"
       clip-path="url(#clipPath9716)"
       sodipodi:insensitive="true">
      <path
         clip-path="url(#clipPath3494)"
         transform="matrix(-0.358939,0.3679125,-1.1151124,-1.0879142,3587.0721,1686.6577)"
         d="m 1695.937,1398.5206 -24.4812,0 12.2406,-21.2013 z"
         inkscape:randomized="0"
         inkscape:rounded="0"
         inkscape:flatsided="true"
         sodipodi:arg2="1.5707963"
         sodipodi:arg1="0.52359878"
         sodipodi:r2="7.0671172"
         sodipodi:r1="14.134234"
         sodipodi:cy="1391.4535"
         sodipodi:cx="1683.6964"
         sodipodi:sides="3"
         id="path3463"
         style="display:inline;opacity:1;fill:#ff0000;fill-opacity:1;stroke:#ffffff;stroke-width:0.838128;stroke-linecap:round;stroke-linejoin:miter;stroke-miterlimit:4;stroke-dasharray:none;stroke-dashoffset:0;stroke-opacity:1"
         sodipodi:type="star" />
      <rect
         clip-path="url(#clipPath3490)"
         ry="0"
         transform="rotate(-135.91755)"
         y="376.01733"
         x="-1620.8837"
         height="53.588943"
         width="13.041035"
         id="rect3457"
         style="display:inline;opacity:1;fill:url(#pattern4166);fill-opacity:1;stroke:#000000;stroke-width:0.749999;stroke-linecap:round;stroke-linejoin:round;stroke-miterlimit:4;stroke-dasharray:none;stroke-dashoffset:0;stroke-opacity:1" />
    </g>
  </g>
</svg>
